<svg width="104" height="110" viewBox="0 0 104 110" fill="none" xmlns="http://www.w3.org/2000/svg">
<g filter="url(#filter0_d_91_8188)">
<circle cx="51.8434" cy="52.0631" r="51.5782" fill="white"/>
<circle cx="51.8434" cy="52.0631" r="50.0522" stroke="black" stroke-width="3.05195"/>
</g>
<path d="M30.0414 52.1891L30.8268 51.4194V71.2481C30.8268 72.6367 31.3784 73.9685 32.3603 74.9505C33.3423 75.9324 34.6741 76.484 36.0627 76.484H41.2987C42.6874 76.484 44.0192 75.9324 45.0011 74.9505C45.983 73.9685 46.5347 72.6367 46.5347 71.2481V66.0121C46.5347 65.3178 46.8105 64.6519 47.3015 64.1609C47.7924 63.6699 48.4583 63.3941 49.1527 63.3941H54.3886C55.083 63.3941 55.7489 63.6699 56.2398 64.1609C56.7308 64.6519 57.0066 65.3178 57.0066 66.0121V71.2481C57.0066 72.6367 57.5583 73.9685 58.5402 74.9505C59.5221 75.9324 60.8539 76.484 62.2426 76.484H67.4786C68.8672 76.484 70.199 75.9324 71.181 74.9505C72.1629 73.9685 72.7145 72.6367 72.7145 71.2481V51.4194L73.4999 52.1891C73.7464 52.4298 74.0379 52.6195 74.3578 52.7476C74.6776 52.8756 75.0195 52.9393 75.364 52.9352C75.7085 52.9311 76.0488 52.8591 76.3654 52.7235C76.6821 52.5878 76.969 52.3911 77.2096 52.1446C77.4503 51.8981 77.64 51.6066 77.768 51.2868C77.896 50.967 77.9598 50.625 77.9557 50.2806C77.9515 49.9361 77.8796 49.5958 77.7439 49.2791C77.6083 48.9625 77.4116 48.6756 77.1651 48.4349L57.0721 28.944C56.3767 28.2464 55.5505 27.6928 54.6408 27.3151C53.731 26.9374 52.7557 26.7429 51.7707 26.7429C50.7856 26.7429 49.8103 26.9374 48.9005 27.3151C47.9908 27.6928 47.1646 28.2464 46.4692 28.944L26.3762 48.4349C26.1297 48.6756 25.933 48.9625 25.7974 49.2791C25.6617 49.5958 25.5898 49.9361 25.5856 50.2806C25.5815 50.625 25.6453 50.967 25.7733 51.2868C25.9013 51.6066 26.091 51.8981 26.3317 52.1446C26.5723 52.3911 26.8592 52.5878 27.1759 52.7235C27.4925 52.8591 27.8328 52.9311 28.1773 52.9352C28.5218 52.9393 28.8637 52.8756 29.1835 52.7476C29.5034 52.6195 29.7949 52.4298 30.0414 52.1891Z" fill="black"/>
<defs>
<filter id="filter0_d_91_8188" x="0.265137" y="0.484863" width="103.156" height="109.26" filterUnits="userSpaceOnUse" color-interpolation-filters="sRGB">
<feFlood flood-opacity="0" result="BackgroundImageFix"/>
<feColorMatrix in="SourceAlpha" type="matrix" values="0 0 0 0 0 0 0 0 0 0 0 0 0 0 0 0 0 0 127 0" result="hardAlpha"/>
<feOffset dy="6.10391"/>
<feComposite in2="hardAlpha" operator="out"/>
<feColorMatrix type="matrix" values="0 0 0 0 0 0 0 0 0 0 0 0 0 0 0 0 0 0 1 0"/>
<feBlend mode="normal" in2="BackgroundImageFix" result="effect1_dropShadow_91_8188"/>
<feBlend mode="normal" in="SourceGraphic" in2="effect1_dropShadow_91_8188" result="shape"/>
</filter>
</defs>
</svg>
