<svg width="1034" height="498" viewBox="0 0 1034 498" fill="none" xmlns="http://www.w3.org/2000/svg">
<path d="M70.0476 69.8807C77.5324 69.8807 133.2 71.0502 133.2 126.016C133.2 180.983 74.4917 181.684 70.0476 181.684H42.2136V254.895C42.2136 255.831 41.5119 257 39.8746 257H9.46769C8.2982 257 7.1287 255.831 7.1287 254.895V147.067H70.0476C74.7256 147.067 97.6477 146.6 97.6477 126.016C97.6477 105.433 74.2578 104.264 70.0476 104.264H7.1287V71.9858C7.1287 71.0502 8.2982 69.8807 9.46769 69.8807H70.0476ZM292.438 254.193C292.906 255.597 291.97 257 290.333 257H258.055C257.353 257 256.184 256.532 255.95 255.597L218.994 151.278L182.506 255.597C182.272 256.532 181.102 257 180.167 257H148.122C146.017 257 145.316 255.597 145.783 254.193L216.655 71.2841C217.357 69.4129 220.631 69.4129 221.333 71.2841L292.438 254.193ZM461.653 69.8807C463.291 69.8807 464.226 71.0502 464.226 71.9858V254.895C464.226 255.831 463.291 257 461.653 257H430.779C430.311 257 428.907 256.766 428.673 256.298L342.599 133.033V212.091H306.812V71.9858C306.812 71.0502 307.981 69.8807 309.151 69.8807H340.26C340.727 69.8807 342.131 70.1146 342.365 70.5824L428.673 193.847V71.9858C428.673 71.0502 429.843 69.8807 431.48 69.8807H461.653ZM511.567 69.8807C557.177 69.8807 621.032 80.4061 621.032 163.44C621.032 243.434 558.113 257 511.567 257H480.926C479.523 257 478.353 255.831 478.353 254.895V181.451H514.14V222.617C536.828 223.552 585.011 221.213 585.011 163.44C585.011 118.999 554.838 101.925 514.14 104.03V145.43H478.353V71.9858C478.353 71.0502 479.523 69.8807 480.926 69.8807H511.567ZM639.219 257C637.816 257 636.646 255.831 636.646 254.895V71.9858C636.646 71.0502 637.816 69.8807 639.219 69.8807H725.528V103.796H672.433V146.132H745.877C747.281 146.132 748.45 147.067 748.45 148.237V177.942C748.45 178.878 747.281 180.047 745.877 180.047H672.433V222.149H725.528V257H639.219Z" fill="white"/>
<path d="M126.852 464.212C126.618 464.914 125.448 465.615 124.747 465.615H95.9772C95.2754 465.615 93.8721 464.914 93.6382 464.212L42.882 365.974V470.995C42.882 471.931 41.7125 473.1 40.3091 473.1H9.43446C7.79716 473.1 7.09547 471.931 7.09547 470.995V288.086C7.09547 287.15 7.79716 285.981 9.43446 285.981H40.7769C41.4786 285.981 42.882 286.682 43.1159 287.384L110.245 424.449L174.099 287.384C174.567 286.682 175.737 285.981 176.672 285.981H207.547C209.184 285.981 210.12 287.15 210.12 288.086V427.958H174.567V368.547L126.852 464.212ZM294.028 441.056C295.665 441.056 296.6 441.992 296.6 443.161V470.995C296.6 471.931 295.665 473.1 294.028 473.1H220.349C218.946 473.1 217.776 471.931 217.776 470.995V443.161C217.776 441.992 218.946 441.056 220.349 441.056H239.529V285.981H275.316V441.056H294.028ZM388.47 369.249C408.117 378.371 418.877 396.615 418.877 418.602C418.877 453.686 390.809 473.1 360.87 473.1H360.636V439.419H360.87C373.266 439.419 384.26 430.998 384.26 418.602C384.26 404.802 371.395 396.381 360.87 395.913C359.232 395.913 346.602 395.913 333.036 389.598C313.622 380.71 302.629 364.103 302.629 342.35C302.629 307.266 330.931 285.981 360.87 285.981C392.914 285.981 417.707 307.499 418.175 339.31C418.409 340.011 417.239 341.181 415.602 341.181H386.365C384.961 341.181 383.792 340.011 383.792 339.31C383.324 325.978 373.033 319.662 360.87 319.662C348.005 319.662 337.48 327.381 337.48 342.35C337.48 355.917 348.941 362.934 360.87 362.934C362.039 362.934 375.138 362.934 388.47 369.249ZM515.47 369.249C535.117 378.371 545.877 396.615 545.877 418.602C545.877 453.686 517.809 473.1 487.87 473.1H487.636V439.419H487.87C500.266 439.419 511.26 430.998 511.26 418.602C511.26 404.802 498.395 396.381 487.87 395.913C486.232 395.913 473.602 395.913 460.036 389.598C440.622 380.71 429.629 364.103 429.629 342.35C429.629 307.266 457.931 285.981 487.87 285.981C519.914 285.981 544.707 307.499 545.175 339.31C545.409 340.011 544.239 341.181 542.602 341.181H513.365C511.961 341.181 510.792 340.011 510.792 339.31C510.324 325.978 500.032 319.662 487.87 319.662C475.005 319.662 464.48 327.381 464.48 342.35C464.48 355.917 475.941 362.934 487.87 362.934C489.039 362.934 502.138 362.934 515.47 369.249ZM628.202 441.056C629.839 441.056 630.775 441.992 630.775 443.161V470.995C630.775 471.931 629.839 473.1 628.202 473.1H554.524C553.12 473.1 551.951 471.931 551.951 470.995V443.161C551.951 441.992 553.12 441.056 554.524 441.056H573.703V285.981H609.49V441.056H628.202ZM744.397 380.008C744.397 389.598 736.678 397.551 726.854 397.551C717.031 397.551 709.312 389.598 709.312 380.008C709.312 370.184 717.031 362.232 726.854 362.232C736.678 362.232 744.397 370.184 744.397 380.008ZM636.803 379.307C636.803 332.761 666.508 285.981 727.088 285.981C786.733 285.981 816.906 332.761 816.906 379.307C816.906 426.086 786.733 473.1 727.088 473.1C666.508 473.1 636.803 426.086 636.803 379.307ZM672.122 380.008C672.122 410.181 690.366 440.354 727.088 440.354C763.343 440.354 781.821 410.181 781.821 380.008C781.821 349.367 763.343 318.961 727.088 318.961C690.366 318.961 672.122 349.367 672.122 380.008ZM984.238 285.981C985.876 285.981 986.811 287.15 986.811 288.086V470.995C986.811 471.931 985.876 473.1 984.238 473.1H953.364C952.896 473.1 951.493 472.866 951.259 472.398L865.184 349.134V428.191H829.397V288.086C829.397 287.15 830.567 285.981 831.736 285.981H862.845C863.313 285.981 864.716 286.215 864.95 286.682L951.259 409.947V288.086C951.259 287.15 952.428 285.981 954.065 285.981H984.238Z" fill="white"/>
<path d="M999.756 141.077C1000.94 143.102 1003.41 146.196 1005.35 145.824C1008.29 145.263 1009.84 140.559 1008.83 135.31C1007.83 130.061 1004.66 126.256 1001.72 126.818C999.958 127.155 998.818 130.516 998.131 132.57L978.289 135.75C975.308 123.427 969.792 111.861 962.094 101.789L985.01 80.8087C987.23 82.12 991.328 83.6827 992.939 82.2962C995.434 80.1312 994.368 74.8001 990.649 70.3042C986.929 65.8084 981.659 64.0007 979.164 66.1656C977.717 67.427 978.451 71.2735 979.138 73.3938L954.769 93.1505C945.893 84.0885 935.253 76.9418 923.508 72.1515L929.291 53.3175C931.641 53.3379 935.558 52.7305 936.189 50.8746C937.198 48.0553 933.905 44.3221 928.834 42.5703C923.762 40.8185 918.911 41.698 917.928 44.6532C917.353 46.3107 919.697 49.0056 921.176 50.3647L914.065 69.1239C901.893 65.5968 889.124 64.6185 876.556 66.2502L869.818 35.8775C872.06 34.6049 875.473 31.8425 875.066 29.7157C874.453 26.5027 869.426 24.7423 863.498 25.8744C857.57 27.0066 853.546 30.4955 854.16 33.7085C854.531 35.6543 858.198 36.9241 860.364 37.2139L865.344 68.2038C853.142 71.3491 841.715 76.9635 831.77 84.7002L818.379 70.091C819.581 68.0323 820.986 64.3399 819.725 62.8923C817.784 60.5895 812.914 61.6134 808.819 64.9752C804.724 68.337 803.101 73.1027 805.042 75.4055C806.187 76.7347 809.852 76.0346 811.656 75.4087L824.288 90.9601C815.134 99.7418 807.878 110.306 802.966 122.002L773.374 112.691C773.396 110.107 772.711 105.782 770.702 105.087C767.585 103.994 763.497 107.636 761.551 113.167C759.606 118.698 760.589 124.091 763.842 125.159C765.652 125.798 768.629 123.212 770.143 121.563L799.43 132.714C795.985 144.915 795.12 157.699 796.89 170.253L777.499 174.566C776.315 172.541 773.848 169.447 771.902 169.819C768.96 170.381 767.42 175.084 768.422 180.333C769.425 185.582 772.59 189.387 775.532 188.825C777.297 188.488 778.437 185.128 778.897 183.117L798.74 179.937C801.721 192.259 807.236 203.825 814.935 213.898L792.019 234.878C789.753 233.575 785.701 232.004 784.09 233.39C781.595 235.555 782.66 240.886 786.38 245.382C790.1 249.878 795.37 251.686 797.864 249.521C799.312 248.259 798.577 244.413 797.891 242.293L822.26 222.536C831.136 231.598 841.775 238.744 853.521 243.535L847.737 262.369C845.388 262.348 841.471 262.956 840.84 264.812C839.831 267.631 843.123 271.364 848.195 273.116C853.267 274.868 858.118 273.988 859.101 271.033C859.676 269.376 857.332 266.681 855.853 265.322L862.744 246.886C874.916 250.413 887.685 251.391 900.253 249.76L906.992 280.132C904.749 281.405 901.336 284.167 901.734 286.249C902.356 289.507 907.383 291.268 913.311 290.135C919.239 289.003 923.263 285.514 922.641 282.256C922.278 280.355 918.611 279.086 916.437 278.751L911.456 247.761C923.74 244.646 935.25 239.031 945.266 231.266L958.656 245.876C957.454 247.934 956.049 251.627 957.31 253.074C959.251 255.377 964.121 254.353 968.216 250.991C972.312 247.63 973.934 242.864 971.993 240.561C970.803 239.241 967.183 239.932 965.379 240.558L952.747 225.007C961.901 216.225 969.158 205.66 974.07 193.965L1003.66 203.275C1003.64 205.859 1004.32 210.184 1006.33 210.88C1009.45 211.973 1013.54 208.331 1015.48 202.8C1017.43 197.269 1016.45 191.875 1013.19 190.808C1011.34 190.177 1008.41 192.754 1006.89 194.404L977.605 183.252C981.05 171.052 981.915 158.267 980.145 145.714L999.756 141.077Z" fill="#80FFEA" stroke="#787878" stroke-width="4.60706" stroke-linecap="round" stroke-linejoin="round"/>
<path d="M882.448 87.0292C882.867 88.882 882.723 90.8179 882.035 92.5885C881.347 94.3592 880.146 95.8839 878.585 96.9674C877.025 98.0508 875.176 98.6436 873.277 98.6697C871.377 98.6957 869.513 98.1539 867.924 97.1137C866.334 96.0734 865.092 94.5822 864.355 92.8311C863.619 91.08 863.422 89.1488 863.79 87.2852C864.159 85.4215 865.075 83.7104 866.422 82.371C867.77 81.0317 869.486 80.1251 871.352 79.7676C872.559 79.493 873.808 79.4645 875.026 79.6835C876.245 79.9025 877.406 80.3646 878.442 81.0423C879.477 81.72 880.366 82.5995 881.054 83.6282C881.742 84.6568 882.216 85.8134 882.448 87.0292Z" fill="#80FFEA" stroke="#787878" stroke-width="4.60706" stroke-linecap="round" stroke-linejoin="round"/>
<path d="M839.62 170.019C840.051 171.881 839.915 173.828 839.23 175.612C838.545 177.396 837.343 178.934 835.777 180.029C834.211 181.125 832.354 181.727 830.444 181.759C828.533 181.791 826.657 181.251 825.056 180.208C823.454 179.166 822.201 177.668 821.457 175.909C820.713 174.149 820.513 172.207 820.881 170.332C821.249 168.457 822.169 166.735 823.523 165.387C824.877 164.038 826.603 163.126 828.479 162.766C829.689 162.485 830.942 162.45 832.165 162.666C833.388 162.881 834.555 163.341 835.595 164.018C836.636 164.696 837.529 165.577 838.221 166.608C838.912 167.639 839.388 168.799 839.62 170.019Z" fill="#80FFEA" stroke="#787878" stroke-width="4.60706" stroke-linecap="round" stroke-linejoin="round"/>
<path d="M877.136 138.793C877.567 140.656 877.43 142.606 876.744 144.391C876.057 146.176 874.852 147.715 873.283 148.81C871.715 149.904 869.855 150.504 867.942 150.533C866.03 150.561 864.153 150.017 862.552 148.969C860.952 147.922 859.701 146.42 858.962 144.656C858.223 142.892 858.028 140.947 858.403 139.071C858.778 137.196 859.706 135.476 861.067 134.132C862.428 132.788 864.16 131.882 866.04 131.531C867.247 131.257 868.497 131.228 869.715 131.447C870.933 131.666 872.095 132.128 873.13 132.806C874.166 133.484 875.054 134.363 875.742 135.392C876.431 136.42 876.905 137.577 877.136 138.793Z" fill="#80FFEA" stroke="#787878" stroke-width="4.60706" stroke-linecap="round" stroke-linejoin="round"/>
<path d="M870.073 220.675C870.492 222.528 870.348 224.464 869.66 226.234C868.972 228.005 867.771 229.53 866.21 230.613C864.65 231.697 862.801 232.289 860.902 232.316C859.002 232.342 857.138 231.8 855.549 230.76C853.959 229.719 852.717 228.228 851.98 226.477C851.244 224.726 851.047 222.795 851.415 220.931C851.784 219.067 852.7 217.356 854.047 216.017C855.395 214.678 857.111 213.771 858.977 213.414C860.184 213.139 861.433 213.11 862.651 213.329C863.869 213.548 865.031 214.011 866.067 214.688C867.102 215.366 867.991 216.245 868.679 217.274C869.367 218.303 869.841 219.459 870.073 220.675Z" fill="#80FFEA" stroke="#787878" stroke-width="4.60706" stroke-linecap="round" stroke-linejoin="round"/>
<path d="M965.136 163.637C965.555 165.489 965.411 167.425 964.723 169.196C964.035 170.967 962.834 172.491 961.273 173.575C959.713 174.658 957.864 175.251 955.965 175.277C954.065 175.303 952.201 174.761 950.612 173.721C949.022 172.681 947.78 171.189 947.043 169.438C946.307 167.687 946.11 165.756 946.478 163.892C946.847 162.029 947.763 160.318 949.11 158.978C950.458 157.639 952.174 156.732 954.04 156.375C955.247 156.1 956.496 156.072 957.714 156.291C958.933 156.51 960.094 156.972 961.13 157.65C962.165 158.327 963.054 159.207 963.742 160.235C964.43 161.264 964.904 162.421 965.136 163.637Z" fill="#80FFEA" stroke="#787878" stroke-width="4.60706" stroke-linecap="round" stroke-linejoin="round"/>
<path d="M900.405 188.663C900.824 190.516 900.68 192.452 899.992 194.222C899.304 195.993 898.103 197.518 896.542 198.601C894.982 199.684 893.133 200.277 891.234 200.303C889.334 200.329 887.47 199.788 885.881 198.747C884.291 197.707 883.049 196.216 882.312 194.465C881.576 192.714 881.379 190.782 881.747 188.919C882.116 187.055 883.032 185.344 884.379 184.005C885.727 182.665 887.443 181.759 889.309 181.401C890.516 181.127 891.765 181.098 892.983 181.317C894.202 181.536 895.363 181.998 896.399 182.676C897.434 183.354 898.323 184.233 899.011 185.262C899.699 186.29 900.173 187.447 900.405 188.663Z" fill="#80FFEA" stroke="#787878" stroke-width="4.60706" stroke-linecap="round" stroke-linejoin="round"/>
<path d="M923.94 147.114C924.371 148.977 924.234 150.927 923.548 152.712C922.861 154.497 921.656 156.036 920.087 157.131C918.519 158.225 916.659 158.825 914.746 158.854C912.834 158.882 910.957 158.338 909.356 157.29C907.756 156.243 906.506 154.741 905.766 152.977C905.027 151.213 904.832 149.268 905.207 147.393C905.582 145.517 906.51 143.797 907.871 142.453C909.232 141.109 910.964 140.203 912.845 139.852C914.051 139.578 915.301 139.549 916.519 139.768C917.737 139.987 918.899 140.449 919.934 141.127C920.97 141.805 921.858 142.684 922.547 143.713C923.235 144.741 923.709 145.898 923.94 147.114Z" fill="#80FFEA" stroke="#787878" stroke-width="4.60706" stroke-linecap="round" stroke-linejoin="round"/>
<path d="M938.624 101.206C939.044 103.059 938.9 104.995 938.212 106.765C937.524 108.536 936.322 110.061 934.762 111.144C933.202 112.227 931.353 112.82 929.454 112.846C927.554 112.872 925.69 112.331 924.101 111.29C922.511 110.25 921.268 108.759 920.532 107.008C919.796 105.257 919.599 103.325 919.967 101.462C920.335 99.5982 921.252 97.887 922.599 96.5476C923.946 95.2083 925.663 94.3018 927.529 93.9444C928.735 93.6698 929.985 93.6411 931.203 93.8601C932.421 94.0791 933.583 94.5412 934.618 95.2189C935.654 95.8966 936.542 96.7762 937.231 97.8048C937.919 98.8334 938.393 99.9901 938.624 101.206Z" fill="#80FFEA" stroke="#787878" stroke-width="4.60706" stroke-linecap="round" stroke-linejoin="round"/>
<path d="M937.442 212.405C937.861 214.258 937.718 216.194 937.03 217.964C936.342 219.735 935.14 221.26 933.58 222.343C932.019 223.427 930.171 224.019 928.272 224.045C926.372 224.071 924.508 223.53 922.919 222.489C921.329 221.449 920.086 219.958 919.35 218.207C918.614 216.456 918.417 214.525 918.785 212.661C919.153 210.797 920.07 209.086 921.417 207.747C922.764 206.407 924.481 205.501 926.346 205.143C927.553 204.869 928.803 204.84 930.021 205.059C931.239 205.278 932.401 205.74 933.436 206.418C934.472 207.096 935.36 207.975 936.049 209.004C936.737 210.032 937.211 211.189 937.442 212.405Z" fill="#80FFEA" stroke="#787878" stroke-width="4.60706" stroke-linecap="round" stroke-linejoin="round"/>
<path d="M838.699 111.894C839.129 113.756 838.993 115.703 838.308 117.487C837.624 119.271 836.421 120.809 834.856 121.905C833.29 123 831.433 123.602 829.522 123.634C827.612 123.666 825.736 123.126 824.134 122.083C822.533 121.041 821.28 119.544 820.536 117.784C819.792 116.024 819.591 114.082 819.959 112.207C820.327 110.332 821.247 108.61 822.601 107.262C823.955 105.914 825.681 105.001 827.558 104.641C828.767 104.36 830.021 104.326 831.244 104.541C832.467 104.756 833.633 105.216 834.674 105.894C835.715 106.571 836.608 107.452 837.299 108.483C837.991 109.514 838.467 110.674 838.699 111.894Z" fill="#80FFEA" stroke="#787878" stroke-width="4.60706" stroke-linecap="round" stroke-linejoin="round"/>
</svg>
