<svg width="207" height="49" viewBox="0 0 207 49" fill="none" xmlns="http://www.w3.org/2000/svg">
<path d="M33.2098 47.584C33.3882 48.0002 33.1503 48.3569 32.6747 48.3569H24.1731C23.9947 48.3569 23.638 48.1785 23.5786 48.0002L14.8986 29.1539H9.78568V47.8218C9.78568 48.0596 9.48842 48.3569 9.13171 48.3569H1.34349C1.04623 48.3569 0.74897 48.0596 0.74897 47.8218V20.4144H16.7416C18.7035 20.4144 23.7569 20.1766 23.7569 14.9448C23.7569 9.71304 18.1684 9.41578 16.7416 9.41578H0.74897V1.3303C0.74897 1.09249 1.04623 0.795229 1.34349 0.795229H16.7416C19.4169 0.795229 32.7936 0.914132 32.7936 14.9448C32.7936 22.198 28.8103 26.0029 24.0542 27.727C27.0268 34.4451 30.2372 40.9848 33.2098 47.584ZM37.051 48.3569C36.6942 48.3569 36.397 48.0596 36.397 47.8218V1.3303C36.397 1.09249 36.6942 0.795229 37.051 0.795229H58.9888V9.41578H45.4931V20.1766H64.1611C64.5178 20.1766 64.8151 20.4144 64.8151 20.7117V28.2621C64.8151 28.4999 64.5178 28.7971 64.1611 28.7971H45.4931V39.4985H58.9888V48.3569H37.051ZM95.1505 9.53468C89.3836 9.29687 77.1365 9.89139 77.1365 24.5761C77.1365 35.8719 84.8058 40.2119 95.1505 39.6769V27.7865H85.9949V18.6903H104.247V47.8218C104.247 48.0596 104.009 48.3569 103.593 48.3569H95.8639C84.2113 48.3569 67.9809 45.6815 67.9809 24.5761C67.9809 4.24345 84.0329 0.795229 95.8639 0.795229H103.593C104.009 0.795229 104.247 1.09249 104.247 1.3303V9.53468H95.1505ZM133.492 39.4985C133.909 39.4985 134.146 39.7958 134.146 40.093V47.8218C134.146 48.0596 133.909 48.3569 133.492 48.3569H108.463C108.106 48.3569 107.809 48.0596 107.809 47.8218V39.4985H133.492ZM107.809 30.4024V1.3303C107.809 1.09249 108.106 0.795229 108.463 0.795229H116.311C116.667 0.795229 116.905 1.09249 116.905 1.3303V30.4024H107.809ZM173.884 47.6434C174.003 48.0002 173.765 48.3569 173.349 48.3569H165.145C164.966 48.3569 164.669 48.238 164.61 48.0002L155.216 21.4845L145.942 48.0002C145.882 48.238 145.585 48.3569 145.347 48.3569H137.202C136.667 48.3569 136.489 48.0002 136.608 47.6434L154.622 1.15194C154.8 0.676323 155.632 0.676323 155.811 1.15194L173.884 47.6434ZM198.94 21.9602C203.934 24.2788 206.669 28.916 206.669 34.5045C206.669 43.4224 199.535 48.3569 191.925 48.3569H191.865V39.7958H191.925C195.076 39.7958 197.87 37.6555 197.87 34.5045C197.87 30.9969 194.6 28.8566 191.925 28.7377C191.509 28.7377 188.298 28.7377 184.85 27.1325C179.916 24.8733 177.121 20.6522 177.121 15.1232C177.121 6.20536 184.315 0.795229 191.925 0.795229C200.07 0.795229 206.372 6.26482 206.491 14.3503C206.55 14.5287 206.253 14.8259 205.837 14.8259H198.405C198.049 14.8259 197.751 14.5287 197.751 14.3503C197.632 10.9615 195.016 9.35632 191.925 9.35632C188.655 9.35632 185.98 11.3182 185.98 15.1232C185.98 18.5714 188.893 20.355 191.925 20.355C192.222 20.355 195.552 20.355 198.94 21.9602Z" fill="black"/>
</svg>
