<svg width="428" height="408" viewBox="0 0 428 408" fill="none" xmlns="http://www.w3.org/2000/svg">
<path d="M101.091 126.112C80.973 137.176 66.3878 152.767 56.832 165.341C53.3114 169.867 45.7673 166.85 47.2761 160.814C54.3172 126.112 78.9612 117.059 98.0729 115.55C104.108 115.55 106.12 123.094 101.091 126.112ZM428 151.761V297.11C428 344.387 389.777 383.113 342.501 384.119V390.657C342.501 398.201 336.465 404.236 328.921 404.236H320.371C312.827 404.236 306.792 398.201 306.792 390.657V384.119H114.167V393.675C114.167 401.219 108.132 407.254 100.588 407.254H92.0376C84.4935 407.254 78.4583 401.219 78.4583 393.675V383.616C34.7027 379.089 0 341.872 0 297.11V151.761C0 103.982 39.2292 64.7531 87.0082 64.7531H144.343C154.402 57.712 165.466 52.6826 177.034 49.665L147.361 19.9917C142.834 15.4653 142.834 7.92127 147.361 3.39483C151.887 -1.13161 159.431 -1.13161 163.958 3.39483L203.187 42.6239L242.919 3.39483C247.445 -1.13161 254.989 -1.13161 259.516 3.39483C264.042 7.92127 264.042 15.4653 259.516 19.9917L229.843 49.665C241.913 52.6826 252.978 58.2149 262.533 64.7531H340.992C388.771 64.7531 428 103.982 428 151.761ZM353.565 161.317C353.565 127.117 325.401 98.953 291.201 98.953H95.5582C61.3584 98.953 33.1939 127.117 33.1939 161.317V288.56C33.1939 322.76 61.3584 350.925 95.5582 350.925H291.201C325.401 350.925 353.565 322.76 353.565 288.56V161.317ZM403.859 260.899C403.859 253.858 397.824 247.823 390.783 247.823C383.741 247.823 377.706 253.858 377.706 260.899C377.706 267.94 383.741 273.975 390.783 273.975C397.824 273.975 403.859 268.443 403.859 260.899ZM403.859 224.687C403.859 217.646 397.824 211.611 390.783 211.611C383.741 211.611 377.706 217.646 377.706 224.687C377.706 231.729 383.741 237.764 390.783 237.764C397.824 238.267 403.859 232.231 403.859 224.687ZM403.859 188.476C403.859 181.435 397.824 175.399 390.783 175.399C383.741 175.399 377.706 181.435 377.706 188.476C377.706 195.517 383.741 201.552 390.783 201.552C397.824 201.552 403.859 195.517 403.859 188.476Z" fill="#80FFEA"/>
<rect x="33" y="91" width="330" height="263" rx="49" fill="#80FFEA"/>
<path d="M96.3107 223.705C96.7828 223.705 97.1762 224.02 97.1762 224.413V234.406C97.1762 234.721 96.7828 235.114 96.3107 235.114H71.605V261H60.4323C59.9602 261 59.5668 260.607 59.5668 260.292V198.764C59.5668 198.449 59.9602 198.055 60.4323 198.055H89.4655V209.464H71.605V223.705H96.3107ZM147.788 198.055C148.181 198.055 148.574 198.449 148.574 198.764V239.992C148.574 253.289 138.346 261 124.97 261C111.988 261 101.366 252.975 101.366 239.992V209.464H113.247V239.914C113.955 246.129 119.148 249.434 124.97 249.434C130.871 249.434 136.694 246.365 136.694 239.992V198.764C136.694 198.449 137.008 198.055 137.559 198.055H147.788ZM177.699 260.292C177.699 260.607 177.305 261 176.754 261H166.605C166.054 261 165.739 260.607 165.739 260.292V220.873H177.699V260.292ZM152.757 208.127V198.764C152.757 198.449 153.15 198.055 153.622 198.055H189.737C190.287 198.055 190.602 198.449 190.602 198.764V208.127C190.602 208.52 190.287 208.835 189.737 208.835H153.622C153.15 208.835 152.757 208.52 152.757 208.127ZM241.221 198.055C241.614 198.055 242.008 198.449 242.008 198.764V239.992C242.008 253.289 231.779 261 218.404 261C205.421 261 194.799 252.975 194.799 239.992V209.464H206.68V239.914C207.388 246.129 212.581 249.434 218.404 249.434C224.305 249.434 230.127 246.365 230.127 239.992V198.764C230.127 198.449 230.442 198.055 230.992 198.055H241.221ZM289.701 259.977C289.937 260.528 289.622 261 288.992 261H277.741C277.505 261 277.033 260.764 276.954 260.528L265.467 235.586H258.7V260.292C258.7 260.607 258.307 261 257.835 261H247.528C247.134 261 246.741 260.607 246.741 260.292V224.02H267.906C270.502 224.02 277.19 223.705 277.19 216.781C277.19 209.858 269.794 209.464 267.906 209.464H246.741V198.764C246.741 198.449 247.134 198.055 247.528 198.055H267.906C271.447 198.055 289.15 198.213 289.15 216.781C289.15 226.38 283.878 231.416 277.584 233.698C281.518 242.589 285.767 251.244 289.701 259.977ZM329.561 229.685C329.561 232.911 326.964 235.586 323.66 235.586C320.355 235.586 317.759 232.911 317.759 229.685C317.759 226.38 320.355 223.705 323.66 223.705C326.964 223.705 329.561 226.38 329.561 229.685ZM293.368 229.449C293.368 213.792 303.36 198.055 323.739 198.055C343.802 198.055 353.952 213.792 353.952 229.449C353.952 245.185 343.802 261 323.739 261C303.36 261 293.368 245.185 293.368 229.449ZM305.249 229.685C305.249 239.835 311.386 249.985 323.739 249.985C335.934 249.985 342.15 239.835 342.15 229.685C342.15 219.378 335.934 209.149 323.739 209.149C311.386 209.149 305.249 219.378 305.249 229.685Z" fill="#191F2D"/>
</svg>
