<svg width="428" stroke="black" height="408" viewBox="0 0 428 408" fill="none"
  xmlns="http://www.w3.org/2000/svg">
  <path
    d="M101.091 126.112C80.973 137.176 66.3878 152.767 56.832 165.341C53.3114 169.867 45.7673 166.85 47.2761 160.814C54.3172 126.112 78.9612 117.059 98.0729 115.55C104.108 115.55 106.12 123.094 101.091 126.112ZM428 151.761V297.11C428 344.387 389.777 383.113 342.501 384.119V390.657C342.501 398.201 336.465 404.236 328.921 404.236H320.371C312.827 404.236 306.792 398.201 306.792 390.657V384.119H114.167V393.675C114.167 401.219 108.132 407.254 100.588 407.254H92.0376C84.4935 407.254 78.4583 401.219 78.4583 393.675V383.616C34.7027 379.089 0 341.872 0 297.11V151.761C0 103.982 39.2292 64.7531 87.0082 64.7531H144.343C154.402 57.712 165.466 52.6826 177.034 49.665L147.361 19.9917C142.834 15.4653 142.834 7.92127 147.361 3.39483C151.887 -1.13161 159.431 -1.13161 163.958 3.39483L203.187 42.6239L242.919 3.39483C247.445 -1.13161 254.989 -1.13161 259.516 3.39483C264.042 7.92127 264.042 15.4653 259.516 19.9917L229.843 49.665C241.913 52.6826 252.978 58.2149 262.533 64.7531H340.992C388.771 64.7531 428 103.982 428 151.761ZM353.565 161.317C353.565 127.117 325.401 98.953 291.201 98.953H95.5582C61.3584 98.953 33.1939 127.117 33.1939 161.317V288.56C33.1939 322.76 61.3584 350.925 95.5582 350.925H291.201C325.401 350.925 353.565 322.76 353.565 288.56V161.317ZM403.859 260.899C403.859 253.858 397.824 247.823 390.783 247.823C383.741 247.823 377.706 253.858 377.706 260.899C377.706 267.94 383.741 273.975 390.783 273.975C397.824 273.975 403.859 268.443 403.859 260.899ZM403.859 224.687C403.859 217.646 397.824 211.611 390.783 211.611C383.741 211.611 377.706 217.646 377.706 224.687C377.706 231.729 383.741 237.764 390.783 237.764C397.824 238.267 403.859 232.231 403.859 224.687ZM403.859 188.476C403.859 181.435 397.824 175.399 390.783 175.399C383.741 175.399 377.706 181.435 377.706 188.476C377.706 195.517 383.741 201.552 390.783 201.552C397.824 201.552 403.859 195.517 403.859 188.476Z"
    fill="#C29DFF" />
  <rect x="33" y="91" width="330" height="263" rx="49" fill="#C29DFF" />
  <path
    d="M69.5927 194.852C72.0786 194.852 90.5676 195.241 90.5676 213.497C90.5676 231.752 71.0687 231.986 69.5927 231.986H60.3482V256.301C60.3482 256.612 60.1152 257 59.5714 257H49.4724C49.0839 257 48.6955 256.612 48.6955 256.301V220.488H69.5927C71.1464 220.488 78.7595 220.333 78.7595 213.497C78.7595 206.66 70.991 206.272 69.5927 206.272H48.6955V195.551C48.6955 195.241 49.0839 194.852 49.4724 194.852H69.5927ZM143.455 256.068C143.61 256.534 143.3 257 142.756 257H132.035C131.802 257 131.414 256.845 131.336 256.534L119.062 221.886L106.943 256.534C106.866 256.845 106.477 257 106.166 257H95.5236C94.8245 257 94.5914 256.534 94.7468 256.068L118.285 195.318C118.518 194.697 119.606 194.697 119.839 195.318L143.455 256.068ZM176.196 222.508C182.721 225.538 186.295 231.597 186.295 238.899C186.295 250.552 176.972 257 167.029 257H166.951V245.813H167.029C171.146 245.813 174.797 243.017 174.797 238.899C174.797 234.316 170.525 231.519 167.029 231.364C166.485 231.364 162.29 231.364 157.784 229.267C151.336 226.315 147.685 220.799 147.685 213.574C147.685 201.922 157.085 194.852 167.029 194.852C177.672 194.852 185.906 201.999 186.062 212.564C186.139 212.797 185.751 213.186 185.207 213.186H175.496C175.03 213.186 174.642 212.797 174.642 212.564C174.487 208.136 171.068 206.039 167.029 206.039C162.756 206.039 159.26 208.602 159.26 213.574C159.26 218.08 163.067 220.41 167.029 220.41C167.417 220.41 171.768 220.41 176.196 222.508ZM239.196 256.068C239.351 256.534 239.04 257 238.496 257H227.776C227.543 257 227.154 256.845 227.077 256.534L214.803 221.886L202.684 256.534C202.606 256.845 202.218 257 201.907 257H191.264C190.565 257 190.332 256.534 190.487 256.068L214.026 195.318C214.259 194.697 215.346 194.697 215.579 195.318L239.196 256.068ZM255.001 194.852C270.149 194.852 291.357 198.348 291.357 225.926C291.357 252.494 270.46 257 255.001 257H244.824C244.358 257 243.969 256.612 243.969 256.301V231.908H255.855V245.58C263.391 245.891 279.394 245.114 279.394 225.926C279.394 211.166 269.372 205.495 255.855 206.194V219.944H243.969V195.551C243.969 195.241 244.358 194.852 244.824 194.852H255.001ZM331.734 226.081C331.734 229.267 329.171 231.908 325.908 231.908C322.645 231.908 320.082 229.267 320.082 226.081C320.082 222.819 322.645 220.177 325.908 220.177C329.171 220.177 331.734 222.819 331.734 226.081ZM295.999 225.848C295.999 210.389 305.865 194.852 325.986 194.852C345.795 194.852 355.817 210.389 355.817 225.848C355.817 241.385 345.795 257 325.986 257C305.865 257 295.999 241.385 295.999 225.848ZM307.73 226.081C307.73 236.103 313.789 246.124 325.986 246.124C338.027 246.124 344.164 236.103 344.164 226.081C344.164 215.905 338.027 205.806 325.986 205.806C313.789 205.806 307.73 215.905 307.73 226.081Z"
    fill="#191F2D" />
</svg>