<svg width="304" height="330" viewBox="0 0 304 330" fill="none" xmlns="http://www.w3.org/2000/svg">
<path opacity="0.2" d="M272.35 124.268C279.431 159.139 270.22 194.376 252.006 221.862C233.055 250.544 203.51 270.547 169.841 277.49C134.97 284.571 101.497 274.241 73.9995 256.027C46.5016 237.813 23.0918 211.203 16.0105 176.332C8.92918 141.46 17.7261 106.249 35.9039 78.7384C54.0818 51.2283 83.5873 31.7486 118.459 24.6673C153.33 17.5859 188.627 23.2072 216.125 41.4215C243.623 59.6359 265.268 89.3969 272.35 124.268Z" fill="#80FFEA"/>
<path d="M95.3646 236.681C92.9312 253.484 79.8393 314.223 75.3982 320.55C68.9283 318.522 62.5754 316.137 56.3687 313.408C56.1276 313.304 55.8575 313.288 55.6058 313.363C55.3541 313.437 55.1368 313.598 54.9918 313.817C54.8468 314.036 54.7834 314.299 54.8126 314.56C54.8419 314.821 54.962 315.064 55.1519 315.245C61.8186 321.391 69.6507 326.136 78.1845 329.201C85.3753 313.383 104.356 259.203 104.356 252.389C99.9882 245.697 95.3646 236.681 95.3646 236.681Z" fill="#80FFEA"/>
<path opacity="0.2" d="M95.3657 236.681C94.6721 241.451 93.1269 249.724 91.168 259.3C94.6526 260.802 98.2192 262.106 101.851 263.206C103.42 257.852 104.382 253.91 104.382 252.377C100.001 245.697 95.3657 236.681 95.3657 236.681Z" fill="black"/>
<path d="M259.963 150.379C259.963 181.844 245.776 210.741 225.164 231.364C203.7 252.879 174.583 265.012 144.192 265.104C112.727 265.104 85.5455 250.26 64.922 229.649C44.2986 209.037 28.7002 181.844 28.7002 150.379C28.7002 118.915 42.5222 89.9444 63.1456 69.3332C83.7691 48.7219 112.727 37.0048 144.192 37.0048C175.656 37.0048 205.247 48.0892 225.87 68.7126C247.506 90.4094 259.75 119.739 259.963 150.379Z" fill="#80FFEA"/>
<path opacity="0.2" d="M177.044 260.213L164.877 248.045C166.203 252.839 165.315 259.178 164.487 263.242C168.729 262.483 172.922 261.471 177.044 260.213Z" fill="black"/>
<path d="M161.348 245.454C167.103 252.985 182.981 275.251 192.982 292.833C196.633 299.282 223.242 304.185 226.394 305.511C225.785 312.269 224.802 318.987 223.449 325.636C223.395 325.894 223.434 326.163 223.561 326.394C223.687 326.626 223.892 326.805 224.138 326.899C224.385 326.993 224.657 326.995 224.905 326.907C225.154 326.818 225.362 326.643 225.493 326.415C230.089 318.591 233.06 309.922 234.229 300.924C217.743 299.853 210.552 291.823 200.161 290.217C191.535 272.745 184.502 251.124 181.776 248.459C173.941 246.926 161.348 245.454 161.348 245.454Z" fill="#80FFEA"/>
<path d="M242.296 41.0565C237.052 53.1021 223.425 67.5932 215.151 73.908C215.291 75.0781 215.805 76.1719 216.616 77.0268C217.427 77.8817 218.492 78.4521 219.653 78.6533C219.653 78.6533 240.581 56.8617 245.521 44.2078C243.757 42.6383 242.296 41.0565 242.296 41.0565Z" fill="#80FFEA"/>
<path d="M254.464 40.144C254.416 42.4975 253.455 44.7403 251.784 46.3979C250.113 48.0556 247.862 48.9981 245.508 49.0261C244.363 48.9929 243.235 48.7328 242.191 48.2608C241.147 47.7887 240.207 47.1142 239.425 46.2763C237.72 44.7003 236.709 42.5126 236.614 40.1927C236.641 37.8343 237.599 35.5822 239.279 33.9265C240.987 32.3305 243.238 31.4427 245.575 31.4427C247.913 31.4427 250.164 32.3305 251.872 33.9265C253.505 35.5878 254.433 37.815 254.464 40.144Z" fill="#80FFEA"/>
<path opacity="0.2" d="M254.464 40.144C254.416 42.4975 253.455 44.7403 251.784 46.3979C250.113 48.0556 247.862 48.9981 245.508 49.0261C244.363 48.9929 243.235 48.7328 242.191 48.2608C241.147 47.7887 240.207 47.1142 239.425 46.2763C237.72 44.7003 236.709 42.5126 236.614 40.1927C236.641 37.8343 237.599 35.5822 239.279 33.9265C240.987 32.3305 243.238 31.4427 245.575 31.4427C247.913 31.4427 250.164 32.3305 251.872 33.9265C253.505 35.5878 254.433 37.815 254.464 40.144Z" fill="#202020"/>
<path d="M169.487 14.5198C168.38 32.0893 157.806 56.5576 150.263 68.3111C153.329 73.4457 158.098 72.2411 158.098 72.2411C158.098 72.2411 174.548 35.2406 174.999 17.0384C172.042 15.846 169.487 14.5198 169.487 14.5198Z" fill="#80FFEA"/>
<path d="M184.417 7.82785C185.443 10.822 185.251 14.0996 183.882 16.9533C182.532 19.7868 180.118 21.9731 177.166 23.0369C174.185 23.9174 170.986 23.6801 168.168 22.3697C165.35 21.0592 163.107 18.7656 161.859 15.9191C160.818 12.9332 161.002 9.65657 162.37 6.80581C163.044 5.40818 163.987 4.1576 165.146 3.12605C166.305 2.09449 167.657 1.30234 169.123 0.795195C172.062 -0.336323 175.33 -0.257587 178.212 1.0142C181.099 2.37636 183.33 4.82599 184.417 7.82785Z" fill="#80FFEA"/>
<path opacity="0.2" d="M184.417 7.82785C185.443 10.822 185.251 14.0996 183.882 16.9533C182.532 19.7868 180.118 21.9731 177.166 23.0369C174.185 23.9174 170.986 23.6801 168.168 22.3697C165.35 21.0592 163.107 18.7656 161.859 15.9191C160.818 12.9332 161.002 9.65657 162.37 6.80581C163.044 5.40818 163.987 4.1576 165.146 3.12605C166.305 2.09449 167.657 1.30234 169.123 0.795195C172.062 -0.336323 175.33 -0.257587 178.212 1.0142C181.099 2.37636 183.33 4.82599 184.417 7.82785Z" fill="#202020"/>
<path d="M207.997 32.5638C201.233 41.4215 196.122 57.5188 194.845 66.267C193.919 66.6449 192.897 66.7152 191.929 66.4676C190.96 66.2201 190.097 65.6677 189.467 64.8921C189.467 64.8921 196.974 40.3751 204.323 31.4809C206.245 32.1379 207.997 32.5638 207.997 32.5638Z" fill="#80FFEA"/>
<path d="M203.64 23.1707C201.913 24.1755 200.646 25.814 200.107 27.7384C199.569 29.6627 199.802 31.7211 200.757 33.4764C201.815 35.1351 203.442 36.3507 205.333 36.8951C207.223 37.4394 209.248 37.2751 211.026 36.433C212.766 35.4403 214.043 33.8003 214.579 31.8703C215.056 29.946 214.788 27.9126 213.829 26.1775C212.87 24.4424 211.291 23.1337 209.408 22.5137C207.474 21.9656 205.402 22.2016 203.64 23.1707Z" fill="#80FFEA"/>
<path opacity="0.2" d="M203.64 23.1707C201.913 24.1755 200.646 25.814 200.107 27.7384C199.569 29.6627 199.802 31.7211 200.757 33.4764C201.815 35.1351 203.442 36.3507 205.333 36.8951C207.223 37.4394 209.248 37.2751 211.026 36.433C212.766 35.4403 214.043 33.8003 214.579 31.8703C215.056 29.946 214.788 27.9126 213.829 26.1775C212.87 24.4424 211.291 23.1337 209.408 22.5137C207.474 21.9656 205.402 22.2016 203.64 23.1707Z" fill="#202020"/>
<path d="M136.819 18.9C137.865 27.6239 143.803 39.5843 147.891 45.1812C147.579 45.9058 147.04 46.5096 146.356 46.9022C145.671 47.2949 144.878 47.4552 144.095 47.3592C144.095 47.3592 134.872 29.3638 134.154 20.3114C135.59 19.63 136.819 18.9 136.819 18.9Z" fill="#80FFEA"/>
<path d="M129.202 15.9799C128.771 17.4971 128.955 19.1232 129.713 20.5061C130.082 21.1958 130.584 21.8057 131.189 22.3006C131.795 22.7956 132.493 23.1657 133.242 23.3897C133.988 23.5914 134.767 23.6436 135.533 23.5434C136.299 23.4432 137.038 23.1924 137.707 22.8057C138.402 22.4679 139.023 21.9948 139.533 21.4139C140.043 20.8331 140.431 20.1563 140.676 19.4232C141.117 17.904 140.938 16.2719 140.177 14.8848C139.388 13.5393 138.12 12.5413 136.627 12.0902C135.133 11.639 133.525 11.768 132.122 12.4514C130.722 13.196 129.672 14.4644 129.202 15.9799Z" fill="#80FFEA"/>
<path opacity="0.2" d="M129.202 15.9799C128.771 17.4971 128.955 19.1232 129.713 20.5061C130.082 21.1958 130.584 21.8057 131.189 22.3006C131.795 22.7956 132.493 23.1657 133.242 23.3897C133.988 23.5914 134.767 23.6436 135.533 23.5434C136.299 23.4432 137.038 23.1924 137.707 22.8057C138.402 22.4679 139.023 21.9948 139.533 21.4139C140.043 20.8331 140.431 20.1563 140.676 19.4232C141.117 17.904 140.938 16.2719 140.177 14.8848C139.388 13.5393 138.12 12.5413 136.627 12.0902C135.133 11.639 133.525 11.768 132.122 12.4514C130.722 13.196 129.672 14.4644 129.202 15.9799Z" fill="#202020"/>
<path d="M104.978 16.8924C110.343 27.6117 112.497 45.6435 112.071 55.1461C112.973 55.7332 114.04 56.0136 115.115 55.9456C116.189 55.8777 117.212 55.465 118.033 54.769C118.033 54.769 115.052 27.3562 109.09 16.4908C106.949 16.795 104.978 16.8924 104.978 16.8924Z" fill="#80FFEA"/>
<path d="M111.474 7.84C113.105 9.25237 114.115 11.2497 114.285 13.4004C114.382 14.4593 114.268 15.5269 113.951 16.5417C113.633 17.5565 113.118 18.4986 112.436 19.3137C110.985 20.8518 109.022 21.808 106.917 22.0028C104.811 22.1977 102.707 21.6179 100.998 20.3722C99.3614 18.967 98.3431 16.974 98.1635 14.824C98.0407 12.702 98.725 10.6121 100.079 8.97369C101.433 7.33528 103.357 6.26963 105.464 5.99059C107.633 5.78926 109.794 6.45408 111.474 7.84Z" fill="#80FFEA"/>
<path opacity="0.2" d="M111.474 7.84C113.105 9.25237 114.115 11.2497 114.285 13.4004C114.382 14.4593 114.268 15.5269 113.951 16.5417C113.633 17.5565 113.118 18.4986 112.436 19.3137C110.985 20.8518 109.022 21.808 106.917 22.0028C104.811 22.1977 102.707 21.6179 100.998 20.3722C99.3614 18.967 98.3431 16.974 98.1635 14.824C98.0407 12.702 98.725 10.6121 100.079 8.97369C101.433 7.33528 103.357 6.26963 105.464 5.99059C107.633 5.78926 109.794 6.45408 111.474 7.84Z" fill="#202020"/>
<path d="M78.9515 35.922C81.1781 45.8505 89.4396 58.7964 94.8297 64.88C94.5544 65.7502 94.0054 66.5083 93.2643 67.0411C92.5232 67.5738 91.6298 67.8529 90.7172 67.8366C90.7172 67.8366 77.9538 48.2109 76.0557 37.8566C77.6131 36.8954 78.9515 35.922 78.9515 35.922Z" fill="#80FFEA"/>
<path d="M69.8141 33.4642C69.4996 35.2674 69.9107 37.1218 70.9578 38.6231C71.4635 39.371 72.1117 40.0117 72.8655 40.5086C73.6192 41.0056 74.4635 41.3489 75.3502 41.5189C77.1334 41.7646 78.9446 41.3427 80.4358 40.3343C81.927 39.326 82.993 37.8023 83.4292 36.0558C83.7528 34.2597 83.3502 32.4085 82.3098 30.9091C81.7983 30.1711 81.1458 29.5417 80.3898 29.0573C79.6339 28.5728 78.7894 28.2428 77.9053 28.0863C76.1278 27.7124 74.2745 28.0533 72.7464 29.0353C71.2267 30.0706 70.1738 31.6608 69.8141 33.4642Z" fill="#80FFEA"/>
<path opacity="0.2" d="M69.8141 33.4642C69.4996 35.2674 69.9107 37.1218 70.9578 38.6231C71.4635 39.371 72.1117 40.0117 72.8655 40.5086C73.6192 41.0056 74.4635 41.3489 75.3502 41.5189C77.1334 41.7646 78.9446 41.3427 80.4358 40.3343C81.927 39.326 82.993 37.8023 83.4292 36.0558C83.7528 34.2597 83.3502 32.4085 82.3098 30.9091C81.7983 30.1711 81.1458 29.5417 80.3898 29.0573C79.6339 28.5728 78.7894 28.2428 77.9053 28.0863C76.1278 27.7124 74.2745 28.0533 72.7464 29.0353C71.2267 30.0706 70.1738 31.6608 69.8141 33.4642Z" fill="#202020"/>
<path d="M50.7842 44.3052C62.1362 50.912 74.9483 66.1332 80.2654 75.0883C81.4444 75.0852 82.591 74.7026 83.5356 73.9969C84.4801 73.2913 85.1722 72.3002 85.5094 71.1704C85.5094 71.1704 66.3217 47.8458 54.3005 41.4702C52.5241 43.0398 50.7842 44.3052 50.7842 44.3052Z" fill="#80FFEA"/>
<path d="M51.2948 32.1136C53.6273 32.4326 55.7438 33.6478 57.1954 35.5013C58.6469 37.3549 59.3192 39.7011 59.0696 42.0421C58.9092 43.1844 58.5219 44.2831 57.9305 45.2735C57.3392 46.264 56.5558 47.1262 55.6263 47.8093C54.7482 48.563 53.7293 49.1349 52.6287 49.4921C51.528 49.8492 50.3674 49.9844 49.2142 49.8899C46.874 49.5867 44.7485 48.3709 43.3009 46.5074C41.9052 44.6326 41.2746 42.2973 41.5366 39.9748C41.7987 37.6522 42.9339 35.5162 44.7123 33.9995C46.5743 32.5321 48.9382 31.8548 51.2948 32.1136Z" fill="#80FFEA"/>
<path opacity="0.2" d="M51.2948 32.1136C53.6273 32.4326 55.7438 33.6478 57.1954 35.5013C58.6469 37.3549 59.3192 39.7011 59.0696 42.0421C58.9092 43.1844 58.5219 44.2831 57.9305 45.2735C57.3392 46.264 56.5558 47.1262 55.6263 47.8093C54.7482 48.563 53.7293 49.1349 52.6287 49.4921C51.528 49.8492 50.3674 49.9844 49.2142 49.8899C46.874 49.5867 44.7485 48.3709 43.3009 46.5074C41.9052 44.6326 41.2746 42.2973 41.5366 39.9748C41.7987 37.6522 42.9339 35.5162 44.7123 33.9995C46.5743 32.5321 48.9382 31.8548 51.2948 32.1136Z" fill="#202020"/>
<path d="M15.9619 113.549C33.288 116.688 56.3571 130.036 67.1494 138.893C72.6004 136.46 72.0163 131.593 72.0163 131.593C72.0163 131.593 37.1816 110.909 19.1497 108.39C17.5802 111.115 15.9619 113.549 15.9619 113.549Z" fill="#80FFEA"/>
<path d="M11.0584 97.9262C14.142 97.2751 17.358 97.846 20.0292 99.5186C22.7004 101.191 24.6183 103.835 25.3792 106.893C25.9038 109.956 25.2952 113.105 23.6674 115.752C22.0395 118.398 19.5036 120.362 16.5336 121.275C13.4444 121.961 10.2092 121.402 7.52988 119.718C4.92112 117.985 3.0662 115.328 2.33913 112.282C1.61207 109.236 2.06694 106.028 3.61203 103.304C5.29618 100.607 7.96896 98.6771 11.0584 97.9262Z" fill="#80FFEA"/>
<path opacity="0.2" d="M11.0584 97.9262C14.142 97.2751 17.358 97.846 20.0292 99.5186C22.7004 101.191 24.6183 103.835 25.3792 106.893C25.9038 109.956 25.2952 113.105 23.6674 115.752C22.0395 118.398 19.5036 120.362 16.5336 121.275C13.4444 121.961 10.2092 121.402 7.52988 119.718C4.92112 117.985 3.0662 115.328 2.33913 112.282C1.61207 109.236 2.06694 106.028 3.61203 103.304C5.29618 100.607 7.96896 98.6771 11.0584 97.9262Z" fill="#202020"/>
<path d="M38.3374 77.3879C46.3556 85.1384 61.7471 92.0737 70.2885 94.3612C70.5582 95.3248 70.5097 96.3497 70.1502 97.2836C69.7907 98.2175 69.1394 99.0104 68.2931 99.5444C68.2931 99.5444 44.8104 89.2388 36.8408 80.9164C37.729 79.1035 38.3374 77.3879 38.3374 77.3879Z" fill="#80FFEA"/>
<path d="M28.5177 80.6244C29.3192 82.4537 30.8009 83.8993 32.6494 84.6555C34.4979 85.4117 36.568 85.4191 38.4218 84.6761C40.1952 83.8211 41.5947 82.3471 42.3567 80.5318C43.1187 78.7165 43.1905 76.6852 42.5587 74.8206C41.772 72.9789 40.2894 71.5226 38.434 70.7689C36.5877 70.0805 34.5497 70.1141 32.7271 70.8629C30.9046 71.6118 29.4317 73.0208 28.6029 74.8085C27.8205 76.6625 27.79 78.7482 28.5177 80.6244Z" fill="#80FFEA"/>
<path opacity="0.2" d="M28.5177 80.6244C29.3192 82.4537 30.8009 83.8993 32.6494 84.6555C34.4979 85.4117 36.568 85.4191 38.4218 84.6761C40.1952 83.8211 41.5947 82.3471 42.3567 80.5318C43.1187 78.7165 43.1905 76.6852 42.5587 74.8206C41.772 72.9789 40.2894 71.5226 38.434 70.7689C36.5877 70.0805 34.5497 70.1141 32.7271 70.8629C30.9046 71.6118 29.4317 73.0208 28.6029 74.8085C27.8205 76.6625 27.79 78.7482 28.5177 80.6244Z" fill="#202020"/>
<path d="M16.5215 146.486C25.3062 146.486 37.8263 141.947 43.9099 138.54C44.5928 138.936 45.1291 139.542 45.4384 140.268C45.7477 140.994 45.8134 141.801 45.6255 142.568C45.6255 142.568 26.6811 149.637 17.6409 149.308C17.1055 147.8 16.5215 146.486 16.5215 146.486Z" fill="#80FFEA"/>
<path d="M12.7857 153.701C14.2442 154.293 15.8754 154.297 17.3366 153.711C18.7977 153.126 19.9751 151.997 20.6214 150.562C21.1312 149.1 21.0941 147.503 20.5169 146.067C19.9398 144.631 18.8616 143.452 17.4822 142.75C16.021 142.148 14.3808 142.148 12.9195 142.75C11.4872 143.372 10.3434 144.514 9.71818 145.945C9.09294 147.376 9.03257 148.991 9.54921 150.464C10.159 151.928 11.3223 153.091 12.7857 153.701Z" fill="#80FFEA"/>
<path opacity="0.2" d="M12.7857 153.701C14.2442 154.293 15.8754 154.297 17.3366 153.711C18.7977 153.126 19.9751 151.997 20.6214 150.562C21.1312 149.1 21.0941 147.503 20.5169 146.067C19.9398 144.631 18.8616 143.452 17.4822 142.75C16.021 142.148 14.3808 142.148 12.9195 142.75C11.4872 143.372 10.3434 144.514 9.71818 145.945C9.09294 147.376 9.03257 148.991 9.54921 150.464C10.159 151.928 11.3223 153.091 12.7857 153.701Z" fill="#202020"/>
<path d="M10.8145 177.877C22.0935 173.801 40.247 173.752 49.6401 175.285C50.3297 174.457 50.7331 173.427 50.7901 172.351C50.8471 171.274 50.5547 170.208 49.9564 169.311C49.9564 169.311 22.3855 169.092 10.8996 173.752C10.9483 175.918 10.8145 177.877 10.8145 177.877Z" fill="#80FFEA"/>
<path d="M2.58983 170.37C4.1795 168.926 6.26892 168.158 8.41528 168.228C10.5616 168.299 12.5962 169.202 14.0879 170.747C14.7948 171.529 15.3387 172.444 15.6876 173.438C16.0365 174.433 16.1834 175.487 16.1198 176.539C16.1301 177.595 15.9312 178.644 15.5344 179.623C15.1376 180.602 14.5509 181.494 13.808 182.245C12.2228 183.701 10.1309 184.478 7.97991 184.411C5.85 184.285 3.84709 183.356 2.37493 181.811C0.902778 180.267 0.0708552 178.222 0.046875 176.088C0.114353 173.923 1.0272 171.87 2.58983 170.37Z" fill="#80FFEA"/>
<path opacity="0.2" d="M2.58983 170.37C4.1795 168.926 6.26892 168.158 8.41528 168.228C10.5616 168.299 12.5962 169.202 14.0879 170.747C14.7948 171.529 15.3387 172.444 15.6876 173.438C16.0365 174.433 16.1834 175.487 16.1198 176.539C16.1301 177.595 15.9312 178.644 15.5344 179.623C15.1376 180.602 14.5509 181.494 13.808 182.245C12.2228 183.701 10.1309 184.478 7.97991 184.411C5.85 184.285 3.84709 183.356 2.37493 181.811C0.902778 180.267 0.0708552 178.222 0.046875 176.088C0.114353 173.923 1.0272 171.87 2.58983 170.37Z" fill="#202020"/>
<path d="M26.6934 205.947C36.8165 204.876 50.6871 198.184 57.2939 193.536C58.1205 193.916 58.8031 194.552 59.2412 195.349C59.6793 196.147 59.8497 197.064 59.7274 197.965C59.7274 197.965 38.7511 208.368 28.2508 209.062C27.5207 207.395 26.6934 205.947 26.6934 205.947Z" fill="#80FFEA"/>
<path d="M23.189 214.732C24.9437 215.247 26.8305 215.055 28.4453 214.196C29.2458 213.783 29.9567 213.215 30.5372 212.526C31.1177 211.837 31.5563 211.04 31.8277 210.181C32.0795 209.323 32.1565 208.423 32.0541 207.535C31.9517 206.647 31.672 205.788 31.2316 205.01C30.8531 204.201 30.3186 203.476 29.6587 202.874C28.9989 202.273 28.2268 201.808 27.3867 201.506C25.6393 200.982 23.7561 201.166 22.1426 202.017C21.3485 202.43 20.644 202.997 20.0698 203.684C19.4955 204.371 19.0628 205.165 18.7966 206.02C18.2126 207.744 18.3351 209.63 19.1373 211.264C19.9781 212.909 21.4343 214.155 23.189 214.732Z" fill="#80FFEA"/>
<path opacity="0.2" d="M23.189 214.732C24.9437 215.247 26.8305 215.055 28.4453 214.196C29.2458 213.783 29.9567 213.215 30.5372 212.526C31.1177 211.837 31.5563 211.04 31.8277 210.181C32.0795 209.323 32.1565 208.423 32.0541 207.535C31.9517 206.647 31.672 205.788 31.2316 205.01C30.8531 204.201 30.3186 203.476 29.6587 202.874C28.9989 202.273 28.2268 201.808 27.3867 201.506C25.6393 200.982 23.7561 201.166 22.1426 202.017C21.3485 202.43 20.644 202.997 20.0698 203.684C19.4955 204.371 19.0628 205.165 18.7966 206.02C18.2126 207.744 18.3351 209.63 19.1373 211.264C19.9781 212.909 21.4343 214.155 23.189 214.732Z" fill="#202020"/>
<path d="M57.0986 257.645C61.9654 245.478 75.2521 230.61 83.3554 224.064C83.1846 222.898 82.6426 221.819 81.8096 220.986C80.9767 220.153 79.8974 219.611 78.7319 219.44C78.7319 219.44 58.3761 241.779 53.7891 254.567C55.5898 256.1 57.0986 257.645 57.0986 257.645Z" fill="#80FFEA"/>
<path d="M44.9438 258.874C44.9201 256.51 45.8295 254.233 47.4746 252.535C49.099 250.847 51.3258 249.872 53.6677 249.822C54.8217 249.817 55.9651 250.042 57.0307 250.485C58.0963 250.928 59.0626 251.58 59.873 252.401C60.7441 253.17 61.4547 254.103 61.9642 255.147C62.4737 256.191 62.7719 257.325 62.8418 258.485C62.8747 260.846 61.9738 263.124 60.3354 264.824C59.5294 265.654 58.5674 266.317 57.5046 266.774C56.4418 267.231 55.2991 267.474 54.1422 267.489C51.7946 267.599 49.4985 266.777 47.7544 265.201C46.8927 264.383 46.2009 263.404 45.7185 262.318C45.2362 261.232 44.973 260.062 44.9438 258.874Z" fill="#80FFEA"/>
<path opacity="0.2" d="M44.9438 258.874C44.9201 256.51 45.8295 254.233 47.4746 252.535C49.099 250.847 51.3258 249.872 53.6677 249.822C54.8217 249.817 55.9651 250.042 57.0307 250.485C58.0963 250.928 59.0626 251.58 59.873 252.401C60.7441 253.17 61.4547 254.103 61.9642 255.147C62.4737 256.191 62.7719 257.325 62.8418 258.485C62.8747 260.846 61.9738 263.124 60.3354 264.824C59.5294 265.654 58.5674 266.317 57.5046 266.774C56.4418 267.231 55.2991 267.474 54.1422 267.489C51.7946 267.599 49.4985 266.777 47.7544 265.201C46.8927 264.383 46.2009 263.404 45.7185 262.318C45.2362 261.232 44.973 260.062 44.9438 258.874Z" fill="#202020"/>
<path d="M147.27 291.02C144.362 273.657 149.108 247.425 153.792 234.272C149.643 229.965 145.275 232.228 145.275 232.228C145.275 232.228 137.658 271.991 141.357 289.816C144.472 290.314 147.27 291.02 147.27 291.02Z" fill="#80FFEA"/>
<path d="M134.251 300.924C132.594 298.243 132.043 295.024 132.712 291.944C133.382 288.864 135.22 286.165 137.84 284.413C140.543 282.879 143.713 282.383 146.755 283.019C149.797 283.656 152.502 285.38 154.363 287.869C156.058 290.539 156.626 293.772 155.945 296.86C155.199 299.901 153.327 302.545 150.708 304.259C148.088 305.973 144.916 306.629 141.831 306.095C138.722 305.437 135.998 303.579 134.251 300.924Z" fill="#80FFEA"/>
<path opacity="0.2" d="M134.251 300.924C132.594 298.243 132.043 295.024 132.712 291.944C133.382 288.864 135.22 286.165 137.84 284.413C140.543 282.879 143.713 282.383 146.755 283.019C149.797 283.656 152.502 285.38 154.363 287.869C156.058 290.539 156.626 293.772 155.945 296.86C155.199 299.901 153.327 302.545 150.708 304.259C148.088 305.973 144.916 306.629 141.831 306.095C138.722 305.437 135.998 303.579 134.251 300.924Z" fill="#202020"/>
<path d="M117.802 279.644C122.389 269.484 123.703 252.645 122.961 243.836C123.775 243.255 124.755 242.953 125.755 242.974C126.755 242.996 127.721 243.341 128.509 243.957C128.509 243.957 126.769 269.508 121.634 279.863C119.627 279.656 117.802 279.644 117.802 279.644Z" fill="#80FFEA"/>
<path d="M124.177 287.808C125.651 286.441 126.525 284.548 126.61 282.539C126.704 280.544 126.004 278.593 124.664 277.113C123.989 276.405 123.179 275.838 122.283 275.445C121.387 275.053 120.422 274.842 119.444 274.825C118.466 274.743 117.481 274.854 116.545 275.153C115.61 275.451 114.743 275.931 113.993 276.565C112.521 277.929 111.647 279.817 111.56 281.822C111.528 283.804 112.248 285.724 113.575 287.196C114.903 288.668 116.739 289.583 118.714 289.755C120.72 289.849 122.683 289.15 124.177 287.808Z" fill="#80FFEA"/>
<path opacity="0.2" d="M124.177 287.808C125.651 286.441 126.525 284.548 126.61 282.539C126.704 280.544 126.004 278.593 124.664 277.113C123.989 276.405 123.179 275.838 122.283 275.445C121.387 275.053 120.422 274.842 119.444 274.825C118.466 274.743 117.481 274.854 116.545 275.153C115.61 275.451 114.743 275.931 113.993 276.565C112.521 277.929 111.647 279.817 111.56 281.822C111.528 283.804 112.248 285.724 113.575 287.196C114.903 288.668 116.739 289.583 118.714 289.755C120.72 289.849 122.683 289.15 124.177 287.808Z" fill="#202020"/>
<path d="M30.3438 224.903C37.8266 220.292 46.1611 209.889 49.5436 203.805C50.3314 203.786 51.1044 204.022 51.7469 204.478C52.3895 204.934 52.8672 205.586 53.1086 206.336C53.1086 206.336 40.6616 222.275 32.7529 226.704C31.5361 225.719 30.3438 224.903 30.3438 224.903Z" fill="#80FFEA"/>
<path d="M30.9028 233.043C32.4496 232.777 33.8337 231.923 34.7656 230.66C35.6975 229.397 36.1052 227.823 35.9035 226.266C35.5888 224.748 34.7327 223.396 33.4946 222.462C32.2566 221.529 30.7213 221.077 29.1751 221.192C27.617 221.436 26.2178 222.284 25.2816 223.553C24.8228 224.178 24.4931 224.889 24.3113 225.643C24.1296 226.397 24.0996 227.179 24.223 227.945C24.4144 229.503 25.2096 230.923 26.4374 231.899C27.7183 232.852 29.322 233.262 30.9028 233.043Z" fill="#80FFEA"/>
<path opacity="0.2" d="M30.9028 233.043C32.4496 232.777 33.8337 231.923 34.7656 230.66C35.6975 229.397 36.1052 227.823 35.9035 226.266C35.5888 224.748 34.7327 223.396 33.4946 222.462C32.2566 221.529 30.7213 221.077 29.1751 221.192C27.617 221.436 26.2178 222.284 25.2816 223.553C24.8228 224.178 24.4931 224.889 24.3113 225.643C24.1296 226.397 24.0996 227.179 24.223 227.945C24.4144 229.503 25.2096 230.923 26.4374 231.899C27.7183 232.852 29.322 233.262 30.9028 233.043Z" fill="#202020"/>
<path d="M226.734 277.806C219.069 268.584 212.888 251.513 211.136 242.169C210.125 241.802 209.022 241.77 207.992 242.079C206.962 242.388 206.059 243.021 205.417 243.884C205.417 243.884 214.542 269.91 222.828 279.169C224.836 278.378 226.734 277.806 226.734 277.806Z" fill="#80FFEA"/>
<path d="M222.452 288.124C220.549 287.118 219.116 285.406 218.461 283.355C217.789 281.316 217.951 279.094 218.912 277.174C219.975 275.332 221.677 273.943 223.694 273.271C225.712 272.598 227.906 272.688 229.862 273.524C231.26 274.285 232.409 275.434 233.17 276.832C233.93 278.231 234.271 279.819 234.15 281.407C234.029 282.994 233.452 284.513 232.489 285.78C231.525 287.047 230.216 288.009 228.718 288.55C226.655 289.24 224.403 289.087 222.452 288.124Z" fill="#80FFEA"/>
<path opacity="0.2" d="M222.452 288.124C220.549 287.118 219.116 285.406 218.461 283.355C217.789 281.316 217.951 279.094 218.912 277.174C219.975 275.332 221.677 273.943 223.694 273.271C225.712 272.598 227.906 272.688 229.862 273.524C231.26 274.285 232.409 275.434 233.17 276.832C233.93 278.231 234.271 279.819 234.15 281.407C234.029 282.994 233.452 284.513 232.489 285.78C231.525 287.047 230.216 288.009 228.718 288.55C226.655 289.24 224.403 289.087 222.452 288.124Z" fill="#202020"/>
<path d="M247.759 253.399C243.331 244.237 232.331 233.445 225.725 228.809C225.796 227.9 226.159 227.038 226.76 226.352C227.361 225.666 228.167 225.192 229.058 225.001C229.058 225.001 245.947 241.207 250.156 250.844C248.83 252.121 247.759 253.399 247.759 253.399Z" fill="#80FFEA"/>
<path d="M257.213 253.715C257.11 251.889 256.293 250.176 254.938 248.946C253.596 247.711 251.82 247.059 249.998 247.133C248.212 247.31 246.553 248.134 245.332 249.449C244.11 250.765 243.412 252.481 243.367 254.275C243.459 256.1 244.268 257.814 245.618 259.045C246.985 260.226 248.749 260.846 250.554 260.78C252.36 260.715 254.074 259.969 255.352 258.692C256.603 257.342 257.272 255.554 257.213 253.715Z" fill="#80FFEA"/>
<path opacity="0.2" d="M257.213 253.715C257.11 251.889 256.293 250.176 254.938 248.946C253.596 247.711 251.82 247.059 249.998 247.133C248.212 247.31 246.553 248.134 245.332 249.449C244.11 250.765 243.412 252.481 243.367 254.275C243.459 256.1 244.268 257.814 245.618 259.045C246.985 260.226 248.749 260.846 250.554 260.78C252.36 260.715 254.074 259.969 255.352 258.692C256.603 257.342 257.272 255.554 257.213 253.715Z" fill="#202020"/>
<path d="M276.073 232.35C263.516 228.505 247.589 216.532 240.374 209.074C239.228 209.344 238.199 209.976 237.441 210.877C236.682 211.778 236.235 212.899 236.164 214.075C236.164 214.075 260.158 232.435 273.298 235.915C274.673 234.005 276.073 232.35 276.073 232.35Z" fill="#80FFEA"/>
<path d="M278.349 244.347C276.005 244.567 273.668 243.866 271.832 242.392C269.997 240.917 268.808 238.786 268.518 236.45C268.398 234.134 269.126 231.853 270.566 230.034C272.006 228.216 274.059 226.984 276.341 226.57C278.687 226.329 281.033 227.029 282.863 228.517C284.64 230.03 285.779 232.16 286.05 234.478C286.321 236.796 285.704 239.131 284.323 241.013C282.848 242.867 280.701 244.065 278.349 244.347Z" fill="#80FFEA"/>
<path opacity="0.2" d="M278.349 244.347C276.005 244.567 273.668 243.866 271.832 242.392C269.997 240.917 268.808 238.786 268.518 236.45C268.398 234.134 269.126 231.853 270.566 230.034C272.006 228.216 274.059 226.984 276.341 226.57C278.687 226.329 281.033 227.029 282.863 228.517C284.64 230.03 285.779 232.16 286.05 234.478C286.321 236.796 285.704 239.131 284.323 241.013C282.848 242.867 280.701 244.065 278.349 244.347Z" fill="#202020"/>
<path d="M289.042 163.52C271.461 164.384 245.958 156.621 233.438 150.44C228.681 154.09 230.408 158.677 230.408 158.677C230.408 158.677 269.015 170.844 287.156 169.275C288.008 166.209 289.042 163.52 289.042 163.52Z" fill="#80FFEA"/>
<path d="M297.366 177.597C294.507 178.958 291.227 179.133 288.24 178.084C286.759 177.589 285.39 176.807 284.213 175.782C283.035 174.756 282.072 173.508 281.378 172.11C280.168 169.248 280.044 166.044 281.03 163.098C282.016 160.152 284.043 157.667 286.731 156.11C289.581 154.74 292.855 154.548 295.845 155.574C298.776 156.674 301.183 158.842 302.583 161.642C303.982 164.443 304.27 167.67 303.388 170.674C302.361 173.679 300.2 176.164 297.366 177.597Z" fill="#80FFEA"/>
<path opacity="0.2" d="M297.366 177.597C294.507 178.958 291.227 179.133 288.24 178.084C286.759 177.589 285.39 176.807 284.213 175.782C283.035 174.756 282.072 173.508 281.378 172.11C280.168 169.248 280.044 166.044 281.03 163.098C282.016 160.152 284.043 157.667 286.731 156.11C289.581 154.74 292.855 154.548 295.845 155.574C298.776 156.674 301.183 158.842 302.583 161.642C303.982 164.443 304.27 167.67 303.388 170.674C302.361 173.679 300.2 176.164 297.366 177.597Z" fill="#202020"/>
<path d="M277.885 203.805C268.322 198.075 251.75 194.802 242.916 194.522C242.433 193.645 242.247 192.636 242.385 191.645C242.523 190.653 242.979 189.733 243.683 189.022C243.683 189.022 268.894 193.719 278.542 200.034C278.104 201.992 277.885 203.805 277.885 203.805Z" fill="#80FFEA"/>
<path d="M286.731 198.415C285.534 196.815 283.762 195.743 281.789 195.425C279.816 195.107 277.797 195.569 276.158 196.712C274.639 197.955 273.622 199.706 273.296 201.641C272.969 203.576 273.355 205.564 274.381 207.237C275.28 208.412 276.499 209.303 277.891 209.803C279.284 210.303 280.791 210.391 282.232 210.056C283.673 209.72 284.987 208.976 286.016 207.913C287.045 206.85 287.745 205.512 288.033 204.061C288.349 202.081 287.882 200.057 286.731 198.415Z" fill="#80FFEA"/>
<path opacity="0.2" d="M286.731 198.415C285.534 196.815 283.762 195.743 281.789 195.425C279.816 195.107 277.797 195.569 276.158 196.712C274.639 197.955 273.622 199.706 273.296 201.641C272.969 203.576 273.355 205.564 274.381 207.237C275.28 208.412 276.499 209.303 277.891 209.803C279.284 210.303 280.791 210.391 282.232 210.056C283.673 209.72 284.987 208.976 286.016 207.913C287.045 206.85 287.745 205.512 288.033 204.061C288.349 202.081 287.882 200.057 286.731 198.415Z" fill="#202020"/>
<path d="M283.471 131.544C274.954 133.564 263.76 140.803 258.601 145.5C257.848 145.269 257.19 144.8 256.725 144.165C256.26 143.529 256.013 142.759 256.022 141.971C256.022 141.971 272.861 130.79 281.78 129.05C282.607 130.4 283.471 131.544 283.471 131.544Z" fill="#80FFEA"/>
<path d="M285.527 123.648C283.969 123.405 282.377 123.777 281.088 124.685C279.799 125.593 278.912 126.966 278.616 128.515C278.495 129.277 278.527 130.056 278.711 130.807C278.895 131.557 279.226 132.262 279.686 132.883C280.517 134.189 281.828 135.115 283.337 135.462C284.896 135.728 286.498 135.365 287.79 134.452C288.429 134.007 288.974 133.438 289.392 132.78C289.809 132.122 290.092 131.388 290.223 130.62C290.383 129.854 290.388 129.064 290.236 128.296C290.084 127.529 289.78 126.8 289.34 126.153C288.901 125.506 288.336 124.954 287.679 124.529C287.021 124.105 286.285 123.818 285.515 123.684L285.527 123.648Z" fill="#80FFEA"/>
<path opacity="0.2" d="M285.527 123.648C283.969 123.405 282.377 123.777 281.088 124.685C279.799 125.593 278.912 126.966 278.616 128.515C278.495 129.277 278.527 130.056 278.711 130.807C278.895 131.557 279.226 132.262 279.686 132.883C280.517 134.189 281.828 135.115 283.337 135.462C284.896 135.728 286.498 135.365 287.79 134.452C288.429 134.007 288.974 133.438 289.392 132.78C289.809 132.122 290.092 131.388 290.223 130.62C290.383 129.854 290.388 129.064 290.236 128.296C290.084 127.529 289.78 126.8 289.34 126.153C288.901 125.506 288.336 124.954 287.679 124.529C287.021 124.105 286.285 123.818 285.515 123.684L285.527 123.648Z" fill="#202020"/>
<path d="M281.901 99.6782C271.85 106.212 254.171 110.373 244.681 111.018C244.198 111.981 244.038 113.073 244.224 114.134C244.41 115.194 244.933 116.167 245.715 116.907C245.715 116.907 272.629 110.823 282.764 103.718C282.217 101.625 281.901 99.6782 281.901 99.6782Z" fill="#80FFEA"/>
<path d="M291.622 105.129C290.401 106.905 288.53 108.129 286.414 108.536C285.37 108.744 284.295 108.744 283.251 108.535C282.207 108.326 281.215 107.913 280.331 107.319C278.642 106.047 277.473 104.203 277.043 102.132C276.613 100.061 276.952 97.9044 277.995 96.0646C279.205 94.2795 281.073 93.0459 283.19 92.6334C284.225 92.4289 285.289 92.4312 286.323 92.64C287.357 92.8488 288.339 93.2601 289.213 93.8501C291.027 94.9928 292.314 96.8089 292.79 98.8995C293.24 101.049 292.82 103.289 291.622 105.129Z" fill="#80FFEA"/>
<path opacity="0.2" d="M291.622 105.129C290.401 106.905 288.53 108.129 286.414 108.536C285.37 108.744 284.295 108.744 283.251 108.535C282.207 108.326 281.215 107.913 280.331 107.319C278.642 106.047 277.473 104.203 277.043 102.132C276.613 100.061 276.952 97.9044 277.995 96.0646C279.205 94.2795 281.073 93.0459 283.19 92.6334C284.225 92.4289 285.289 92.4312 286.323 92.64C287.357 92.8488 288.339 93.2601 289.213 93.8501C291.027 94.9928 292.314 96.8089 292.79 98.8995C293.24 101.049 292.82 103.289 291.622 105.129Z" fill="#202020"/>
<path d="M260.073 75.9521C250.461 79.286 238.464 88.9589 233.086 94.9817C232.191 94.8028 231.378 94.3406 230.767 93.6634C230.155 92.9863 229.778 92.1302 229.691 91.222C229.691 91.222 247.748 76.3293 257.822 73.2753C258.941 74.7232 260.073 75.9521 260.073 75.9521Z" fill="#80FFEA"/>
<path d="M261.484 66.5955C259.664 66.5 257.878 67.1133 256.501 68.3067C255.124 69.5 254.263 71.1806 254.098 72.9955C254.072 74.792 254.7 76.5367 255.867 77.9029C257.034 79.2691 258.659 80.1631 260.438 80.4175C262.263 80.5377 264.061 79.9295 265.438 78.7262C266.113 78.1338 266.663 77.4139 267.058 76.6078C267.452 75.8017 267.683 74.9255 267.738 74.0297C267.912 72.2198 267.365 70.4144 266.217 69.0046C265.015 67.6138 263.316 66.7491 261.484 66.5955Z" fill="#80FFEA"/>
<path opacity="0.2" d="M261.484 66.5955C259.664 66.5 257.878 67.1133 256.501 68.3067C255.124 69.5 254.263 71.1806 254.098 72.9955C254.072 74.792 254.7 76.5367 255.867 77.9029C257.034 79.2691 258.659 80.1631 260.438 80.4175C262.263 80.5377 264.061 79.9295 265.438 78.7262C266.113 78.1338 266.663 77.4139 267.058 76.6078C267.452 75.8017 267.683 74.9255 267.738 74.0297C267.912 72.2198 267.365 70.4144 266.217 69.0046C265.015 67.6138 263.316 66.7491 261.484 66.5955Z" fill="#202020"/>
<g opacity="0.1">
<path d="M243.221 146.899C243.221 153.616 239.741 159.76 238.354 166.136C236.967 172.511 236.176 179.069 233.487 185.092C230.79 191.066 227.531 196.77 223.753 202.126C220.14 207.61 216.031 212.75 211.477 217.481C206.78 222.033 201.645 226.108 196.146 229.649C190.793 233.361 185.088 236.535 179.112 239.127C173.089 241.645 167.091 244.322 160.569 245.649C154.047 246.975 147.647 246.646 140.955 246.646C134.263 246.646 128.301 244.626 122.072 243.203C115.635 241.743 108.955 241.84 103.091 239.103C97.2263 236.365 92.7974 231.242 87.5047 227.446C82.2119 223.65 75.6173 221.472 71.0181 216.873C66.4189 212.274 61.2113 207.869 57.3299 202.564C53.4486 197.259 52.0494 190.397 49.2022 184.496C46.2699 178.677 43.9771 172.558 42.3643 166.245C40.8799 159.991 41.3787 153.628 41.3787 146.911C41.3787 140.195 37.7285 133.065 39.0791 126.677C40.4297 120.29 45.1627 114.425 47.7422 108.426C50.3216 102.428 52.4387 95.7482 56.1376 90.3217C59.8364 84.8951 64.752 80.0038 69.3877 75.3681C74.0234 70.7324 80.2165 68.0678 85.7283 64.4176C91.1378 60.8494 96.8987 57.8447 102.921 55.4504C108.943 53.0899 114.844 50.1455 121.378 48.9409C127.717 47.7242 134.288 48.9409 140.955 48.9409C147.466 48.7584 153.98 49.1452 160.423 50.0968C166.981 51.2405 172.785 53.893 178.868 56.1804C184.952 58.4679 191.401 59.9644 196.925 63.4808C202.448 66.9971 208.204 70.3553 212.864 75.0031C217.524 79.651 221.149 85.2601 224.873 90.8205C228.596 96.381 230.311 102.647 232.903 108.828C235.495 115.009 241.542 120.034 242.892 126.592C244.243 133.15 243.221 140.171 243.221 146.899Z" fill="#202020"/>
</g>
<path d="M153.056 125.539C153.614 117.124 149.627 110.007 144.149 109.644C138.671 109.28 133.777 115.806 133.218 124.221C132.659 132.636 136.647 139.752 142.125 140.116C147.603 140.48 152.497 133.953 153.056 125.539Z" fill="#202020"/>
<path d="M93.4696 124.617C94.0286 116.203 90.0409 109.086 84.5629 108.722C79.0849 108.358 74.191 114.885 73.6321 123.3C73.0732 131.714 77.0609 138.831 82.5389 139.195C88.0169 139.559 92.9107 133.032 93.4696 124.617Z" fill="#202020"/>
<path d="M117.984 172.901C156.919 175.638 180.171 152.788 181.253 151.73C181.797 151.181 182.101 150.44 182.101 149.667C182.101 148.895 181.797 148.154 181.253 147.605C180.985 147.334 180.666 147.119 180.314 146.972C179.962 146.825 179.585 146.749 179.203 146.749C178.822 146.749 178.444 146.825 178.092 146.972C177.741 147.119 177.421 147.334 177.153 147.605C176.885 147.86 150.385 173.911 107.63 165.673C107.254 165.6 106.868 165.601 106.494 165.679C106.12 165.756 105.765 165.908 105.45 166.124C105.135 166.341 104.866 166.618 104.659 166.939C104.453 167.261 104.313 167.621 104.247 167.997C104.108 168.76 104.275 169.547 104.713 170.187C105.15 170.827 105.822 171.269 106.583 171.416C110.351 172.132 114.158 172.627 117.984 172.901Z" fill="#202020"/>
<path d="M145.554 89.6646C145.19 90.0948 144.939 90.6093 144.824 91.1612C144.735 91.5918 144.732 92.0357 144.815 92.4676C144.897 92.8995 145.064 93.3108 145.306 93.678C145.548 94.0453 145.86 94.3613 146.224 94.6079C146.588 94.8546 146.997 95.0271 147.428 95.1155C152.567 96.313 157.922 96.2327 163.023 94.8815C168.125 93.5304 172.817 90.9496 176.69 87.365C176.999 87.0506 177.241 86.6773 177.402 86.2674C177.564 85.8574 177.641 85.4192 177.63 84.9788C177.619 84.5383 177.519 84.1046 177.336 83.7035C177.154 83.3025 176.893 82.9422 176.568 82.6441C175.923 82.0342 175.064 81.7026 174.176 81.7208C173.288 81.739 172.443 82.1056 171.823 82.7414C171.373 83.2038 162.892 91.5505 148.791 88.5939C148.205 88.4698 147.596 88.5036 147.028 88.6917C146.459 88.8798 145.95 89.2156 145.554 89.6646Z" fill="#202020"/>
<path d="M81.1042 90.4311C80.839 89.9584 80.4618 89.5581 80.0057 89.2653C79.5495 88.9726 79.0285 88.7963 78.4883 88.752C63.3523 87.5353 57.0861 76.8038 57.0253 76.6943C56.8085 76.3135 56.5181 75.9796 56.1712 75.7119C55.8243 75.4442 55.4277 75.2481 55.0043 75.1349C54.581 75.0217 54.1394 74.9937 53.7052 75.0525C53.2709 75.1114 52.8527 75.2559 52.4748 75.4776C51.717 75.9293 51.1657 76.6591 50.9384 77.5115C50.7111 78.3639 50.8258 79.2713 51.258 80.0403C51.5744 80.6122 59.3492 93.9231 77.9286 95.4318C78.5368 95.4804 79.1467 95.363 79.6934 95.0921C80.2401 94.8212 80.703 94.407 81.0327 93.8937C81.3624 93.3804 81.5466 92.7872 81.5657 92.1774C81.5847 91.5675 81.4378 90.964 81.1407 90.4311H81.1042Z" fill="#202020"/>
</svg>
