<svg width="296" height="297" viewBox="0 0 296 297" fill="none" xmlns="http://www.w3.org/2000/svg">
<path opacity="0.2" d="M264.635 120.433C271.498 154.228 262.571 188.377 244.919 215.014C226.553 242.811 197.92 262.197 165.29 268.926C131.495 275.788 99.0559 265.777 72.4067 248.125C45.7575 230.473 23.0702 204.684 16.2075 170.889C9.34471 137.094 17.8701 102.969 35.4869 76.3082C53.1037 49.6472 81.6986 30.7687 115.494 23.9059C149.289 17.0432 183.496 22.491 210.146 40.1431C236.795 57.7953 257.772 86.6378 264.635 120.433Z" fill="#C29DFF"/>
<path d="M252.632 145.738C252.632 176.231 238.882 204.236 218.907 224.223C198.105 245.075 169.887 256.832 140.434 256.922C109.94 256.922 83.5976 242.536 63.6107 222.561C43.6238 202.586 28.5068 176.231 28.5068 145.738C28.5068 115.244 41.9022 87.1684 61.8891 67.1933C81.8761 47.2181 109.94 35.8627 140.434 35.8627C170.927 35.8627 199.604 46.605 219.591 66.5919C240.559 87.619 252.425 116.043 252.632 145.738Z" fill="#C29DFF"/>
<path d="M235.508 39.7893C230.426 51.4631 217.22 65.507 209.201 71.6269C209.337 72.7609 209.834 73.8209 210.62 74.6494C211.406 75.4779 212.439 76.0307 213.564 76.2257C213.564 76.2257 233.846 55.1067 238.633 42.8434C236.923 41.3222 235.508 39.7893 235.508 39.7893Z" fill="#C29DFF"/>
<path d="M247.3 38.905C247.255 41.1858 246.323 43.3594 244.704 44.9659C243.084 46.5724 240.903 47.4858 238.622 47.5129C237.512 47.4808 236.419 47.2287 235.407 46.7712C234.395 46.3138 233.483 45.6601 232.726 44.848C231.073 43.3206 230.094 41.2005 230.002 38.9522C230.028 36.6666 230.956 34.4839 232.584 32.8794C234.24 31.3326 236.421 30.4722 238.687 30.4722C240.952 30.4722 243.133 31.3326 244.789 32.8794C246.371 34.4894 247.271 36.6479 247.3 38.905Z" fill="#C29DFF"/>
<path opacity="0.2" d="M247.3 38.905C247.255 41.1858 246.323 43.3594 244.704 44.9659C243.084 46.5724 240.903 47.4858 238.622 47.5129C237.512 47.4808 236.419 47.2287 235.407 46.7712C234.395 46.3138 233.483 45.6601 232.726 44.848C231.073 43.3206 230.094 41.2005 230.002 38.9522C230.028 36.6666 230.956 34.4839 232.584 32.8794C234.24 31.3326 236.421 30.4722 238.687 30.4722C240.952 30.4722 243.133 31.3326 244.789 32.8794C246.371 34.4894 247.271 36.6479 247.3 38.905Z" fill="#202020"/>
<path d="M164.947 14.0717C163.874 31.0989 153.627 54.812 146.316 66.2028C149.288 71.1788 153.91 70.0115 153.91 70.0115C153.91 70.0115 169.853 34.1529 170.289 16.5125C167.424 15.3569 164.947 14.0717 164.947 14.0717Z" fill="#C29DFF"/>
<path d="M179.416 7.58625C180.411 10.488 180.224 13.6645 178.897 16.43C177.589 19.1761 175.25 21.2949 172.388 22.3259C169.5 23.1792 166.399 22.9493 163.668 21.6793C160.937 20.4093 158.763 18.1864 157.554 15.4277C156.545 12.534 156.724 9.35852 158.05 6.59575C158.703 5.24126 159.617 4.02928 160.74 3.02956C161.863 2.02985 163.173 1.26215 164.594 0.770651C167.443 -0.325943 170.61 -0.249636 173.402 0.982893C176.201 2.30301 178.363 4.67704 179.416 7.58625Z" fill="#C29DFF"/>
<path opacity="0.2" d="M179.416 7.58625C180.411 10.488 180.224 13.6645 178.897 16.43C177.589 19.1761 175.25 21.2949 172.388 22.3259C169.5 23.1792 166.399 22.9493 163.668 21.6793C160.937 20.4093 158.763 18.1864 157.554 15.4277C156.545 12.534 156.724 9.35852 158.05 6.59575C158.703 5.24126 159.617 4.02928 160.74 3.02956C161.863 2.02985 163.173 1.26215 164.594 0.770651C167.443 -0.325943 170.61 -0.249636 173.402 0.982893C176.201 2.30301 178.363 4.67704 179.416 7.58625Z" fill="#202020"/>
<path d="M202.268 31.5587C195.712 40.1431 190.76 55.7435 189.521 64.2217C188.625 64.5879 187.634 64.6561 186.695 64.4162C185.757 64.1763 184.921 63.6409 184.31 62.8893C184.31 62.8893 191.585 39.129 198.707 30.5093C200.57 31.146 202.268 31.5587 202.268 31.5587Z" fill="#C29DFF"/>
<path d="M198.047 22.4556C196.373 23.4293 195.145 25.0173 194.623 26.8823C194.101 28.7472 194.327 30.7421 195.252 32.4432C196.278 34.0507 197.855 35.2288 199.687 35.7563C201.519 36.2839 203.481 36.1247 205.205 35.3085C206.891 34.3465 208.128 32.7571 208.648 30.8867C209.11 29.0218 208.85 27.0511 207.921 25.3696C206.992 23.688 205.461 22.4197 203.636 21.8188C201.762 21.2876 199.754 21.5164 198.047 22.4556Z" fill="#C29DFF"/>
<path opacity="0.2" d="M198.047 22.4556C196.373 23.4293 195.145 25.0173 194.623 26.8823C194.101 28.7472 194.327 30.7421 195.252 32.4432C196.278 34.0507 197.855 35.2288 199.687 35.7563C201.519 36.2839 203.481 36.1247 205.205 35.3085C206.891 34.3465 208.128 32.7571 208.648 30.8867C209.11 29.0218 208.85 27.0511 207.921 25.3696C206.992 23.688 205.461 22.4197 203.636 21.8188C201.762 21.2876 199.754 21.5164 198.047 22.4556Z" fill="#202020"/>
<path d="M133.286 18.3167C134.301 26.7714 140.055 38.3626 144.017 43.7868C143.714 44.4889 143.192 45.0741 142.529 45.4546C141.866 45.8352 141.097 45.9905 140.338 45.8975C140.338 45.8975 131.4 28.4576 130.704 19.6845C132.096 19.0242 133.286 18.3167 133.286 18.3167Z" fill="#C29DFF"/>
<path d="M125.905 15.4867C125.487 16.9571 125.665 18.533 126.401 19.8732C126.758 20.5417 127.244 21.1328 127.831 21.6124C128.418 22.0921 129.094 22.4508 129.82 22.6678C130.543 22.8633 131.298 22.9139 132.04 22.8168C132.783 22.7197 133.499 22.4767 134.148 22.1018C134.821 21.7745 135.423 21.316 135.917 20.753C136.411 20.1901 136.788 19.5342 137.025 18.8238C137.452 17.3515 137.278 15.7697 136.541 14.4255C135.776 13.1215 134.547 12.1543 133.1 11.7171C131.653 11.2798 130.094 11.4049 128.735 12.0671C127.378 12.7888 126.36 14.018 125.905 15.4867Z" fill="#C29DFF"/>
<path opacity="0.2" d="M125.905 15.4867C125.487 16.9571 125.665 18.533 126.401 19.8732C126.758 20.5417 127.244 21.1328 127.831 21.6124C128.418 22.0921 129.094 22.4508 129.82 22.6678C130.543 22.8633 131.298 22.9139 132.04 22.8168C132.783 22.7197 133.499 22.4767 134.148 22.1018C134.821 21.7745 135.423 21.316 135.917 20.753C136.411 20.1901 136.788 19.5342 137.025 18.8238C137.452 17.3515 137.278 15.7697 136.541 14.4255C135.776 13.1215 134.547 12.1543 133.1 11.7171C131.653 11.2798 130.094 11.4049 128.735 12.0671C127.378 12.7888 126.36 14.018 125.905 15.4867Z" fill="#202020"/>
<path d="M102.429 16.3711C107.629 26.7595 109.716 44.2348 109.303 53.4442C110.177 54.0131 111.212 54.2848 112.253 54.219C113.294 54.1531 114.286 53.7532 115.081 53.0786C115.081 53.0786 112.192 26.5119 106.414 15.9819C104.339 16.2767 102.429 16.3711 102.429 16.3711Z" fill="#C29DFF"/>
<path d="M108.724 7.59811C110.305 8.96689 111.283 10.9026 111.448 12.9869C111.542 14.0131 111.432 15.0477 111.124 16.0312C110.817 17.0147 110.318 17.9277 109.656 18.7177C108.25 20.2084 106.348 21.135 104.307 21.3238C102.267 21.5127 100.228 20.9508 98.5717 19.7436C96.9851 18.3817 95.9982 16.4502 95.8242 14.3666C95.7052 12.3101 96.3683 10.2847 97.6806 8.69682C98.9929 7.10897 100.857 6.07621 102.899 5.80579C105.001 5.61066 107.095 6.25497 108.724 7.59811Z" fill="#C29DFF"/>
<path opacity="0.2" d="M108.724 7.59811C110.305 8.96689 111.283 10.9026 111.448 12.9869C111.542 14.0131 111.432 15.0477 111.124 16.0312C110.817 17.0147 110.318 17.9277 109.656 18.7177C108.25 20.2084 106.348 21.135 104.307 21.3238C102.267 21.5127 100.228 20.9508 98.5717 19.7436C96.9851 18.3817 95.9982 16.4502 95.8242 14.3666C95.7052 12.3101 96.3683 10.2847 97.6806 8.69682C98.9929 7.10897 100.857 6.07621 102.899 5.80579C105.001 5.61066 107.095 6.25497 108.724 7.59811Z" fill="#202020"/>
<path d="M77.2058 34.8133C79.3637 44.4353 87.3703 56.9817 92.594 62.8775C92.3272 63.7209 91.7951 64.4555 91.0769 64.9719C90.3587 65.4882 89.4928 65.7587 88.6084 65.7429C88.6084 65.7429 76.2389 46.7229 74.3994 36.6882C75.9088 35.7566 77.2058 34.8133 77.2058 34.8133Z" fill="#C29DFF"/>
<path d="M68.35 32.4313C68.0452 34.1788 68.4436 35.976 69.4584 37.431C69.9484 38.1558 70.5767 38.7768 71.3072 39.2584C72.0376 39.7399 72.8559 40.0726 73.7152 40.2374C75.4434 40.4755 77.1987 40.0667 78.6438 39.0894C80.089 38.1122 81.1222 36.6355 81.5449 34.943C81.8585 33.2023 81.4683 31.4083 80.46 29.9551C79.9643 29.2399 79.3319 28.6299 78.5993 28.1604C77.8667 27.6909 77.0483 27.3711 76.1915 27.2194C74.4688 26.857 72.6727 27.1874 71.1918 28.1391C69.7189 29.1425 68.6986 30.6836 68.35 32.4313Z" fill="#C29DFF"/>
<path opacity="0.2" d="M68.35 32.4313C68.0452 34.1788 68.4436 35.976 69.4584 37.431C69.9484 38.1558 70.5767 38.7768 71.3072 39.2584C72.0376 39.7399 72.8559 40.0726 73.7152 40.2374C75.4434 40.4755 77.1987 40.0667 78.6438 39.0894C80.089 38.1122 81.1222 36.6355 81.5449 34.943C81.8585 33.2023 81.4683 31.4083 80.46 29.9551C79.9643 29.2399 79.3319 28.6299 78.5993 28.1604C77.8667 27.6909 77.0483 27.3711 76.1915 27.2194C74.4688 26.857 72.6727 27.1874 71.1918 28.1391C69.7189 29.1425 68.6986 30.6836 68.35 32.4313Z" fill="#202020"/>
<path d="M49.9082 42.9378C60.9099 49.3407 73.3265 64.0921 78.4795 72.7708C79.6221 72.7679 80.7334 72.397 81.6487 71.7132C82.5641 71.0293 83.2349 70.0688 83.5617 68.9739C83.5617 68.9739 64.9662 46.3692 53.316 40.1904C51.5944 41.7115 49.9082 42.9378 49.9082 42.9378Z" fill="#C29DFF"/>
<path d="M50.4029 31.1225C52.6635 31.4317 54.7147 32.6093 56.1214 34.4057C57.5281 36.202 58.1797 38.4758 57.9378 40.7445C57.7823 41.8516 57.407 42.9164 56.8339 43.8763C56.2608 44.8361 55.5015 45.6717 54.6008 46.3338C53.7498 47.0642 52.7624 47.6185 51.6957 47.9646C50.629 48.3107 49.5042 48.4418 48.3865 48.3502C46.1186 48.0563 44.0587 46.878 42.6558 45.0721C41.3032 43.2551 40.692 40.9919 40.946 38.741C41.2 36.4902 42.3001 34.4201 44.0236 32.9502C45.8281 31.5281 48.1191 30.8717 50.4029 31.1225Z" fill="#C29DFF"/>
<path opacity="0.2" d="M50.4029 31.1225C52.6635 31.4317 54.7147 32.6093 56.1214 34.4057C57.5281 36.202 58.1797 38.4758 57.9378 40.7445C57.7823 41.8516 57.407 42.9164 56.8339 43.8763C56.2608 44.8361 55.5015 45.6717 54.6008 46.3338C53.7498 47.0642 52.7624 47.6185 51.6957 47.9646C50.629 48.3107 49.5042 48.4418 48.3865 48.3502C46.1186 48.0563 44.0587 46.878 42.6558 45.0721C41.3032 43.2551 40.692 40.9919 40.946 38.741C41.2 36.4902 42.3001 34.4201 44.0236 32.9502C45.8281 31.5281 48.1191 30.8717 50.4029 31.1225Z" fill="#202020"/>
<path d="M16.1602 110.044C32.9515 113.087 55.3086 126.022 65.7678 134.606C71.0505 132.248 70.4845 127.531 70.4845 127.531C70.4845 127.531 36.7249 107.485 19.2496 105.045C17.7285 107.686 16.1602 110.044 16.1602 110.044Z" fill="#C29DFF"/>
<path d="M11.4087 94.9038C14.3972 94.2728 17.5139 94.8261 20.1026 96.4471C22.6914 98.068 24.5501 100.63 25.2875 103.594C25.7959 106.562 25.2062 109.614 23.6285 112.179C22.0509 114.744 19.5933 116.647 16.715 117.532C13.7211 118.197 10.5857 117.655 7.98912 116.023C5.46087 114.344 3.6632 111.769 2.95858 108.817C2.25395 105.865 2.69479 102.756 4.19219 100.116C5.82436 97.5023 8.41465 95.6315 11.4087 94.9038Z" fill="#C29DFF"/>
<path opacity="0.2" d="M11.4087 94.9038C14.3972 94.2728 17.5139 94.8261 20.1026 96.4471C22.6914 98.068 24.5501 100.63 25.2875 103.594C25.7959 106.562 25.2062 109.614 23.6285 112.179C22.0509 114.744 19.5933 116.647 16.715 117.532C13.7211 118.197 10.5857 117.655 7.98912 116.023C5.46087 114.344 3.6632 111.769 2.95858 108.817C2.25395 105.865 2.69479 102.756 4.19219 100.116C5.82436 97.5023 8.41465 95.6315 11.4087 94.9038Z" fill="#202020"/>
<path d="M37.8449 74.9994C45.6156 82.5107 60.5321 89.232 68.8099 91.4488C69.0713 92.3827 69.0242 93.376 68.6758 94.281C68.3274 95.1861 67.6962 95.9545 66.8761 96.4721C66.8761 96.4721 44.1181 86.4845 36.3945 78.419C37.2553 76.662 37.8449 74.9994 37.8449 74.9994Z" fill="#C29DFF"/>
<path d="M28.3286 78.1359C29.1054 79.9087 30.5414 81.3098 32.3328 82.0426C34.1242 82.7755 36.1305 82.7826 37.9271 82.0626C39.6458 81.234 41.0021 79.8055 41.7405 78.0462C42.479 76.2869 42.5486 74.3183 41.9363 72.5113C41.1738 70.7264 39.7371 69.3151 37.9389 68.5846C36.1496 67.9175 34.1745 67.95 32.4082 68.6758C30.6419 69.4015 29.2145 70.7671 28.4112 72.4995C27.653 74.2963 27.6234 76.3176 28.3286 78.1359Z" fill="#C29DFF"/>
<path opacity="0.2" d="M28.3286 78.1359C29.1054 79.9087 30.5414 81.3098 32.3328 82.0426C34.1242 82.7755 36.1305 82.7826 37.9271 82.0626C39.6458 81.234 41.0021 79.8055 41.7405 78.0462C42.479 76.2869 42.5486 74.3183 41.9363 72.5113C41.1738 70.7264 39.7371 69.3151 37.9389 68.5846C36.1496 67.9175 34.1745 67.95 32.4082 68.6758C30.6419 69.4015 29.2145 70.7671 28.4112 72.4995C27.653 74.2963 27.6234 76.3176 28.3286 78.1359Z" fill="#202020"/>
<path d="M16.7031 141.964C25.2167 141.964 37.3504 137.566 43.2462 134.264C43.9081 134.648 44.4278 135.235 44.7276 135.939C45.0273 136.643 45.0909 137.425 44.9089 138.168C44.9089 138.168 26.5492 145.018 17.788 144.7C17.2691 143.238 16.7031 141.964 16.7031 141.964Z" fill="#C29DFF"/>
<path d="M13.0823 148.957C14.4957 149.531 16.0766 149.534 17.4927 148.967C18.9088 148.4 20.0498 147.306 20.6761 145.915C21.1702 144.498 21.1343 142.951 20.5749 141.559C20.0156 140.167 18.9707 139.025 17.6339 138.344C16.2177 137.761 14.6282 137.761 13.212 138.344C11.8238 138.947 10.7154 140.054 10.1094 141.44C9.50351 142.827 9.445 144.392 9.94569 145.82C10.5366 147.239 11.664 148.366 13.0823 148.957Z" fill="#C29DFF"/>
<path opacity="0.2" d="M13.0823 148.957C14.4957 149.531 16.0766 149.534 17.4927 148.967C18.9088 148.4 20.0498 147.306 20.6761 145.915C21.1702 144.498 21.1343 142.951 20.5749 141.559C20.0156 140.167 18.9707 139.025 17.6339 138.344C16.2177 137.761 14.6282 137.761 13.212 138.344C11.8238 138.947 10.7154 140.054 10.1094 141.44C9.50351 142.827 9.445 144.392 9.94569 145.82C10.5366 147.239 11.664 148.366 13.0823 148.957Z" fill="#202020"/>
<path d="M11.1719 172.387C22.1028 168.437 39.696 168.39 48.7992 169.875C49.4675 169.072 49.8585 168.075 49.9137 167.031C49.969 165.988 49.6856 164.955 49.1058 164.086C49.1058 164.086 22.3858 163.873 11.2544 168.39C11.3016 170.489 11.1719 172.387 11.1719 172.387Z" fill="#C29DFF"/>
<path d="M3.2008 165.112C4.74141 163.712 6.76634 162.968 8.84645 163.036C10.9266 163.104 12.8984 163.98 14.3439 165.477C15.0291 166.235 15.5562 167.121 15.8943 168.085C16.2324 169.049 16.3748 170.07 16.3132 171.09C16.3232 172.114 16.1304 173.13 15.7458 174.079C15.3613 175.028 14.7927 175.892 14.0727 176.62C12.5365 178.031 10.5092 178.784 8.42452 178.719C6.36034 178.597 4.41925 177.697 2.99253 176.2C1.56581 174.703 0.759568 172.721 0.736328 170.654C0.801723 168.555 1.68639 166.566 3.2008 165.112Z" fill="#C29DFF"/>
<path opacity="0.2" d="M3.2008 165.112C4.74141 163.712 6.76634 162.968 8.84645 163.036C10.9266 163.104 12.8984 163.98 14.3439 165.477C15.0291 166.235 15.5562 167.121 15.8943 168.085C16.2324 169.049 16.3748 170.07 16.3132 171.09C16.3232 172.114 16.1304 173.13 15.7458 174.079C15.3613 175.028 14.7927 175.892 14.0727 176.62C12.5365 178.031 10.5092 178.784 8.42452 178.719C6.36034 178.597 4.41925 177.697 2.99253 176.2C1.56581 174.703 0.759568 172.721 0.736328 170.654C0.801723 168.555 1.68639 166.566 3.2008 165.112Z" fill="#202020"/>
<path d="M26.5605 199.59C36.3712 198.553 49.8138 192.067 56.2167 187.563C57.0177 187.931 57.6792 188.547 58.1038 189.32C58.5284 190.093 58.6936 190.981 58.575 191.855C58.575 191.855 38.2461 201.937 28.0699 202.609C27.3624 200.994 26.5605 199.59 26.5605 199.59Z" fill="#C29DFF"/>
<path d="M23.1643 208.104C24.8648 208.604 26.6934 208.417 28.2583 207.585C29.0341 207.185 29.7231 206.635 30.2857 205.967C30.8482 205.299 31.2733 204.527 31.5364 203.694C31.7804 202.863 31.855 201.991 31.7557 201.13C31.6565 200.269 31.3854 199.437 30.9586 198.683C30.5918 197.899 30.0738 197.196 29.4343 196.613C28.7949 196.03 28.0466 195.579 27.2324 195.287C25.5389 194.779 23.7139 194.957 22.1502 195.782C21.3806 196.183 20.6978 196.732 20.1413 197.398C19.5848 198.063 19.1655 198.833 18.9075 199.661C18.3414 201.332 18.4601 203.16 19.2376 204.743C20.0525 206.337 21.4637 207.545 23.1643 208.104Z" fill="#C29DFF"/>
<path opacity="0.2" d="M23.1643 208.104C24.8648 208.604 26.6934 208.417 28.2583 207.585C29.0341 207.185 29.7231 206.635 30.2857 205.967C30.8482 205.299 31.2733 204.527 31.5364 203.694C31.7804 202.863 31.855 201.991 31.7557 201.13C31.6565 200.269 31.3854 199.437 30.9586 198.683C30.5918 197.899 30.0738 197.196 29.4343 196.613C28.7949 196.03 28.0466 195.579 27.2324 195.287C25.5389 194.779 23.7139 194.957 22.1502 195.782C21.3806 196.183 20.6978 196.732 20.1413 197.398C19.5848 198.063 19.1655 198.833 18.9075 199.661C18.3414 201.332 18.4601 203.16 19.2376 204.743C20.0525 206.337 21.4637 207.545 23.1643 208.104Z" fill="#202020"/>
<path d="M56.0277 249.693C60.7443 237.902 73.6209 223.492 81.4741 217.148C81.3086 216.019 80.7833 214.973 79.976 214.166C79.1688 213.358 78.1228 212.833 76.9933 212.667C76.9933 212.667 57.2658 234.317 52.8203 246.71C54.5655 248.196 56.0277 249.693 56.0277 249.693Z" fill="#C29DFF"/>
<path d="M44.2475 250.884C44.2245 248.593 45.1058 246.386 46.7002 244.741C48.2744 243.105 50.4325 242.16 52.7022 242.111C53.8205 242.106 54.9286 242.325 55.9613 242.754C56.994 243.184 57.9305 243.815 58.7159 244.611C59.5601 245.356 60.2488 246.26 60.7426 247.272C61.2363 248.284 61.5254 249.383 61.5931 250.507C61.6249 252.795 60.7519 255.003 59.164 256.65C58.3829 257.455 57.4506 258.097 56.4206 258.54C55.3906 258.984 54.2832 259.219 53.162 259.233C50.8868 259.34 48.6616 258.543 46.9714 257.016C46.1363 256.223 45.4658 255.274 44.9983 254.222C44.5309 253.169 44.2758 252.035 44.2475 250.884Z" fill="#C29DFF"/>
<path opacity="0.2" d="M44.2475 250.884C44.2245 248.593 45.1058 246.386 46.7002 244.741C48.2744 243.105 50.4325 242.16 52.7022 242.111C53.8205 242.106 54.9286 242.325 55.9613 242.754C56.994 243.184 57.9305 243.815 58.7159 244.611C59.5601 245.356 60.2488 246.26 60.7426 247.272C61.2363 248.284 61.5254 249.383 61.5931 250.507C61.6249 252.795 60.7519 255.003 59.164 256.65C58.3829 257.455 57.4506 258.097 56.4206 258.54C55.3906 258.984 54.2832 259.219 53.162 259.233C50.8868 259.34 48.6616 258.543 46.9714 257.016C46.1363 256.223 45.4658 255.274 44.9983 254.222C44.5309 253.169 44.2758 252.035 44.2475 250.884Z" fill="#202020"/>
<path d="M143.416 282.038C140.598 265.211 145.197 239.788 149.736 227.042C145.715 222.867 141.482 225.061 141.482 225.061C141.482 225.061 134.101 263.596 137.685 280.871C140.704 281.354 143.416 282.038 143.416 282.038Z" fill="#C29DFF"/>
<path d="M130.798 291.636C129.193 289.038 128.658 285.918 129.307 282.933C129.956 279.949 131.738 277.332 134.277 275.635C136.896 274.148 139.968 273.668 142.916 274.284C145.864 274.901 148.486 276.572 150.29 278.984C151.932 281.572 152.483 284.705 151.823 287.698C151.1 290.644 149.286 293.207 146.747 294.868C144.209 296.529 141.134 297.165 138.145 296.648C135.132 296.01 132.492 294.209 130.798 291.636Z" fill="#C29DFF"/>
<path opacity="0.2" d="M130.798 291.636C129.193 289.038 128.658 285.918 129.307 282.933C129.956 279.949 131.738 277.332 134.277 275.635C136.896 274.148 139.968 273.668 142.916 274.284C145.864 274.901 148.486 276.572 150.29 278.984C151.932 281.572 152.483 284.705 151.823 287.698C151.1 290.644 149.286 293.207 146.747 294.868C144.209 296.529 141.134 297.165 138.145 296.648C135.132 296.01 132.492 294.209 130.798 291.636Z" fill="#202020"/>
<path d="M114.857 271.013C119.303 261.167 120.576 244.847 119.857 236.31C120.646 235.747 121.596 235.454 122.565 235.475C123.534 235.497 124.471 235.831 125.234 236.428C125.234 236.428 123.548 261.19 118.572 271.225C116.626 271.025 114.857 271.013 114.857 271.013Z" fill="#C29DFF"/>
<path d="M121.036 278.925C122.464 277.6 123.311 275.765 123.394 273.819C123.485 271.886 122.807 269.995 121.507 268.56C120.853 267.874 120.069 267.325 119.2 266.944C118.332 266.563 117.397 266.359 116.449 266.343C115.501 266.263 114.546 266.371 113.639 266.66C112.733 266.95 111.893 267.415 111.166 268.029C109.74 269.351 108.892 271.181 108.808 273.123C108.777 275.044 109.475 276.906 110.761 278.332C112.048 279.759 113.827 280.645 115.741 280.812C117.685 280.903 119.587 280.225 121.036 278.925Z" fill="#C29DFF"/>
<path opacity="0.2" d="M121.036 278.925C122.464 277.6 123.311 275.765 123.394 273.819C123.485 271.886 122.807 269.995 121.507 268.56C120.853 267.874 120.069 267.325 119.2 266.944C118.332 266.563 117.397 266.359 116.449 266.343C115.501 266.263 114.546 266.371 113.639 266.66C112.733 266.95 111.893 267.415 111.166 268.029C109.74 269.351 108.892 271.181 108.808 273.123C108.777 275.044 109.475 276.906 110.761 278.332C112.048 279.759 113.827 280.645 115.741 280.812C117.685 280.903 119.587 280.225 121.036 278.925Z" fill="#202020"/>
<path d="M30.0977 217.962C37.3496 213.493 45.4269 203.411 48.705 197.515C49.4684 197.496 50.2175 197.725 50.8403 198.167C51.463 198.609 51.926 199.241 52.1599 199.968C52.1599 199.968 40.097 215.415 32.4324 219.707C31.2532 218.752 30.0977 217.962 30.0977 217.962Z" fill="#C29DFF"/>
<path d="M30.6397 225.851C32.1387 225.592 33.48 224.765 34.3832 223.541C35.2864 222.317 35.6815 220.791 35.486 219.283C35.1811 217.811 34.3513 216.501 33.1515 215.596C31.9517 214.691 30.4638 214.254 28.9652 214.365C27.4552 214.601 26.0993 215.423 25.1919 216.653C24.7473 217.259 24.4277 217.948 24.2516 218.678C24.0755 219.409 24.0464 220.168 24.166 220.91C24.3515 222.419 25.1221 223.795 26.3121 224.742C27.5534 225.665 29.1076 226.063 30.6397 225.851Z" fill="#C29DFF"/>
<path opacity="0.2" d="M30.6397 225.851C32.1387 225.592 33.48 224.765 34.3832 223.541C35.2864 222.317 35.6815 220.791 35.486 219.283C35.1811 217.811 34.3513 216.501 33.1515 215.596C31.9517 214.691 30.4638 214.254 28.9652 214.365C27.4552 214.601 26.0993 215.423 25.1919 216.653C24.7473 217.259 24.4277 217.948 24.2516 218.678C24.0755 219.409 24.0464 220.168 24.166 220.91C24.3515 222.419 25.1221 223.795 26.3121 224.742C27.5534 225.665 29.1076 226.063 30.6397 225.851Z" fill="#202020"/>
<path d="M220.428 269.232C212.999 260.294 207.009 243.75 205.311 234.694C204.331 234.339 203.263 234.308 202.264 234.608C201.266 234.907 200.391 235.521 199.769 236.357C199.769 236.357 208.612 261.579 216.642 270.553C218.588 269.786 220.428 269.232 220.428 269.232Z" fill="#C29DFF"/>
<path d="M216.276 279.232C214.432 278.256 213.043 276.597 212.409 274.609C211.757 272.633 211.914 270.48 212.845 268.619C213.876 266.834 215.525 265.489 217.48 264.837C219.435 264.185 221.562 264.272 223.458 265.082C224.813 265.819 225.926 266.933 226.663 268.288C227.4 269.643 227.73 271.183 227.613 272.721C227.496 274.26 226.937 275.732 226.003 276.96C225.069 278.188 223.8 279.12 222.349 279.644C220.35 280.313 218.167 280.164 216.276 279.232Z" fill="#C29DFF"/>
<path opacity="0.2" d="M216.276 279.232C214.432 278.256 213.043 276.597 212.409 274.609C211.757 272.633 211.914 270.48 212.845 268.619C213.876 266.834 215.525 265.489 217.48 264.837C219.435 264.185 221.562 264.272 223.458 265.082C224.813 265.819 225.926 266.933 226.663 268.288C227.4 269.643 227.73 271.183 227.613 272.721C227.496 274.26 226.937 275.732 226.003 276.96C225.069 278.188 223.8 279.12 222.349 279.644C220.35 280.313 218.167 280.164 216.276 279.232Z" fill="#202020"/>
<path d="M240.804 245.578C236.512 236.699 225.852 226.24 219.449 221.747C219.518 220.866 219.87 220.031 220.453 219.366C221.035 218.701 221.816 218.241 222.68 218.056C222.68 218.056 239.047 233.763 243.127 243.102C241.842 244.34 240.804 245.578 240.804 245.578Z" fill="#C29DFF"/>
<path d="M249.966 245.885C249.866 244.114 249.074 242.454 247.761 241.262C246.46 240.066 244.739 239.434 242.973 239.505C241.242 239.677 239.634 240.476 238.451 241.75C237.267 243.025 236.59 244.688 236.547 246.427C236.636 248.195 237.42 249.857 238.728 251.049C240.053 252.194 241.762 252.795 243.512 252.732C245.262 252.668 246.923 251.945 248.162 250.707C249.374 249.4 250.022 247.667 249.966 245.885Z" fill="#C29DFF"/>
<path opacity="0.2" d="M249.966 245.885C249.866 244.114 249.074 242.454 247.761 241.262C246.46 240.066 244.739 239.434 242.973 239.505C241.242 239.677 239.634 240.476 238.451 241.75C237.267 243.025 236.59 244.688 236.547 246.427C236.636 248.195 237.42 249.857 238.728 251.049C240.053 252.194 241.762 252.795 243.512 252.732C245.262 252.668 246.923 251.945 248.162 250.707C249.374 249.4 250.022 247.667 249.966 245.885Z" fill="#202020"/>
<path d="M268.243 225.178C256.074 221.452 240.639 209.849 233.646 202.621C232.536 202.883 231.539 203.495 230.804 204.368C230.069 205.242 229.635 206.328 229.566 207.467C229.566 207.467 252.82 225.261 265.555 228.633C266.887 226.782 268.243 225.178 268.243 225.178Z" fill="#C29DFF"/>
<path d="M270.448 236.805C268.177 237.019 265.912 236.339 264.133 234.91C262.354 233.482 261.202 231.416 260.921 229.152C260.804 226.907 261.51 224.697 262.905 222.934C264.301 221.172 266.291 219.979 268.503 219.577C270.776 219.343 273.05 220.022 274.823 221.464C276.546 222.93 277.649 224.994 277.912 227.241C278.174 229.488 277.576 231.75 276.238 233.574C274.808 235.371 272.728 236.532 270.448 236.805Z" fill="#C29DFF"/>
<path opacity="0.2" d="M270.448 236.805C268.177 237.019 265.912 236.339 264.133 234.91C262.354 233.482 261.202 231.416 260.921 229.152C260.804 226.907 261.51 224.697 262.905 222.934C264.301 221.172 266.291 219.979 268.503 219.577C270.776 219.343 273.05 220.022 274.823 221.464C276.546 222.93 277.649 224.994 277.912 227.241C278.174 229.488 277.576 231.75 276.238 233.574C274.808 235.371 272.728 236.532 270.448 236.805Z" fill="#202020"/>
<path d="M280.813 158.473C263.774 159.31 239.059 151.787 226.925 145.797C222.314 149.334 223.989 153.78 223.989 153.78C223.989 153.78 261.404 165.571 278.985 164.05C279.811 161.079 280.813 158.473 280.813 158.473Z" fill="#C29DFF"/>
<path d="M288.878 172.116C286.108 173.435 282.929 173.604 280.034 172.588C278.599 172.108 277.273 171.35 276.131 170.356C274.99 169.363 274.056 168.153 273.384 166.798C272.211 164.025 272.092 160.919 273.047 158.064C274.002 155.209 275.967 152.801 278.572 151.292C281.333 149.964 284.506 149.778 287.404 150.773C290.245 151.838 292.578 153.939 293.934 156.653C295.29 159.368 295.569 162.495 294.715 165.406C293.72 168.319 291.625 170.727 288.878 172.116Z" fill="#C29DFF"/>
<path opacity="0.2" d="M288.878 172.116C286.108 173.435 282.929 173.604 280.034 172.588C278.599 172.108 277.273 171.35 276.131 170.356C274.99 169.363 274.056 168.153 273.384 166.798C272.211 164.025 272.092 160.919 273.047 158.064C274.002 155.209 275.967 152.801 278.572 151.292C281.333 149.964 284.506 149.778 287.404 150.773C290.245 151.838 292.578 153.939 293.934 156.653C295.29 159.368 295.569 162.495 294.715 165.406C293.72 168.319 291.625 170.727 288.878 172.116Z" fill="#202020"/>
<path d="M270 197.515C260.732 191.961 244.671 188.789 236.111 188.518C235.642 187.669 235.462 186.69 235.596 185.73C235.73 184.769 236.171 183.877 236.853 183.188C236.853 183.188 261.286 187.74 270.637 193.86C270.212 195.758 270 197.515 270 197.515Z" fill="#C29DFF"/>
<path d="M278.573 192.291C277.412 190.741 275.695 189.701 273.783 189.393C271.871 189.085 269.914 189.533 268.326 190.641C266.854 191.845 265.869 193.542 265.552 195.418C265.236 197.293 265.609 199.219 266.604 200.84C267.475 201.979 268.656 202.843 270.006 203.328C271.355 203.812 272.816 203.897 274.213 203.572C275.609 203.247 276.883 202.527 277.88 201.496C278.877 200.466 279.556 199.169 279.834 197.763C280.141 195.844 279.688 193.882 278.573 192.291Z" fill="#C29DFF"/>
<path opacity="0.2" d="M278.573 192.291C277.412 190.741 275.695 189.701 273.783 189.393C271.871 189.085 269.914 189.533 268.326 190.641C266.854 191.845 265.869 193.542 265.552 195.418C265.236 197.293 265.609 199.219 266.604 200.84C267.475 201.979 268.656 202.843 270.006 203.328C271.355 203.812 272.816 203.897 274.213 203.572C275.609 203.247 276.883 202.527 277.88 201.496C278.877 200.466 279.556 199.169 279.834 197.763C280.141 195.844 279.688 193.882 278.573 192.291Z" fill="#202020"/>
<path d="M275.413 127.484C267.159 129.442 256.31 136.458 251.311 141.009C250.581 140.785 249.943 140.331 249.492 139.715C249.042 139.099 248.803 138.353 248.811 137.59C248.811 137.59 265.13 126.753 273.774 125.067C274.576 126.376 275.413 127.484 275.413 127.484Z" fill="#C29DFF"/>
<path d="M277.405 119.831C275.895 119.596 274.353 119.957 273.103 120.837C271.854 121.717 270.995 123.047 270.707 124.548C270.59 125.287 270.621 126.042 270.799 126.769C270.978 127.496 271.299 128.18 271.745 128.781C272.55 130.047 273.821 130.945 275.282 131.281C276.794 131.539 278.346 131.187 279.598 130.302C280.218 129.871 280.746 129.32 281.151 128.682C281.555 128.045 281.829 127.333 281.957 126.588C282.112 125.846 282.116 125.08 281.969 124.337C281.822 123.593 281.527 122.886 281.101 122.259C280.675 121.632 280.127 121.097 279.49 120.686C278.853 120.275 278.14 119.996 277.393 119.867L277.405 119.831Z" fill="#C29DFF"/>
<path opacity="0.2" d="M277.405 119.831C275.895 119.596 274.353 119.957 273.103 120.837C271.854 121.717 270.995 123.047 270.707 124.548C270.59 125.287 270.621 126.042 270.799 126.769C270.978 127.496 271.299 128.18 271.745 128.781C272.55 130.047 273.821 130.945 275.282 131.281C276.794 131.539 278.346 131.187 279.598 130.302C280.218 129.871 280.746 129.32 281.151 128.682C281.555 128.045 281.829 127.333 281.957 126.588C282.112 125.846 282.116 125.08 281.969 124.337C281.822 123.593 281.527 122.886 281.101 122.259C280.675 121.632 280.127 121.097 279.49 120.686C278.853 120.275 278.14 119.996 277.393 119.867L277.405 119.831Z" fill="#202020"/>
<path d="M273.891 96.6018C264.151 102.934 247.017 106.967 237.82 107.592C237.352 108.524 237.196 109.583 237.377 110.611C237.557 111.639 238.064 112.581 238.822 113.299C238.822 113.299 264.905 107.403 274.728 100.517C274.197 98.4885 273.891 96.6018 273.891 96.6018Z" fill="#C29DFF"/>
<path d="M283.313 101.884C282.13 103.605 280.317 104.791 278.266 105.186C277.254 105.388 276.212 105.387 275.2 105.185C274.189 104.983 273.227 104.582 272.37 104.007C270.733 102.773 269.601 100.987 269.184 98.9796C268.767 96.9727 269.095 94.8827 270.106 93.0996C271.279 91.3696 273.09 90.1742 275.141 89.7743C276.144 89.5762 277.176 89.5784 278.178 89.7807C279.179 89.9831 280.131 90.3817 280.978 90.9535C282.736 92.0609 283.983 93.821 284.445 95.8471C284.881 97.93 284.474 100.101 283.313 101.884Z" fill="#C29DFF"/>
<path opacity="0.2" d="M283.313 101.884C282.13 103.605 280.317 104.791 278.266 105.186C277.254 105.388 276.212 105.387 275.2 105.185C274.189 104.983 273.227 104.582 272.37 104.007C270.733 102.773 269.601 100.987 269.184 98.9796C268.767 96.9727 269.095 94.8827 270.106 93.0996C271.279 91.3696 273.09 90.1742 275.141 89.7743C276.144 89.5762 277.176 89.5784 278.178 89.7807C279.179 89.9831 280.131 90.3817 280.978 90.9535C282.736 92.0609 283.983 93.821 284.445 95.8471C284.881 97.93 284.474 100.101 283.313 101.884Z" fill="#202020"/>
<path d="M252.737 73.608C243.421 76.8389 231.795 86.2133 226.583 92.0502C225.716 91.8769 224.928 91.4289 224.335 90.7726C223.743 90.1164 223.377 89.2867 223.293 88.4065C223.293 88.4065 240.792 73.9735 250.555 71.0138C251.64 72.417 252.737 73.608 252.737 73.608Z" fill="#C29DFF"/>
<path d="M254.105 64.5402C252.341 64.4476 250.61 65.042 249.276 66.1985C247.941 67.355 247.106 68.9837 246.947 70.7426C246.921 72.4836 247.53 74.1745 248.661 75.4986C249.792 76.8226 251.367 77.689 253.091 77.9355C254.859 78.052 256.602 77.4626 257.937 76.2965C258.59 75.7224 259.124 75.0246 259.506 74.2434C259.889 73.4622 260.113 72.6131 260.166 71.7449C260.334 69.9909 259.804 68.2411 258.692 66.8749C257.527 65.5271 255.88 64.689 254.105 64.5402Z" fill="#C29DFF"/>
<path opacity="0.2" d="M254.105 64.5402C252.341 64.4476 250.61 65.042 249.276 66.1985C247.941 67.355 247.106 68.9837 246.947 70.7426C246.921 72.4836 247.53 74.1745 248.661 75.4986C249.792 76.8226 251.367 77.689 253.091 77.9355C254.859 78.052 256.602 77.4626 257.937 76.2965C258.59 75.7224 259.124 75.0246 259.506 74.2434C259.889 73.4622 260.113 72.6131 260.166 71.7449C260.334 69.9909 259.804 68.2411 258.692 66.8749C257.527 65.5271 255.88 64.689 254.105 64.5402Z" fill="#202020"/>
<g opacity="0.1">
<path d="M236.405 142.365C236.405 148.874 233.033 154.829 231.688 161.008C230.344 167.187 229.578 173.543 226.972 179.38C224.358 185.169 221.2 190.697 217.538 195.888C214.037 201.202 210.054 206.184 205.641 210.769C201.089 215.18 196.112 219.13 190.783 222.561C185.596 226.158 180.066 229.235 174.275 231.746C168.438 234.187 162.624 236.782 156.304 238.067C149.984 239.352 143.781 239.034 137.296 239.034C130.81 239.034 125.033 237.076 118.995 235.697C112.757 234.282 106.284 234.376 100.6 231.723C94.9165 229.07 90.6243 224.105 85.495 220.426C80.3656 216.747 73.9745 214.637 69.5172 210.179C65.0599 205.722 60.0131 201.454 56.2515 196.312C52.49 191.171 51.1339 184.521 48.3747 178.802C45.5328 173.163 43.3108 167.232 41.7478 161.114C40.3092 155.053 40.7926 148.886 40.7926 142.377C40.7926 135.868 37.2551 128.958 38.564 122.768C39.8729 116.577 44.4598 110.893 46.9597 105.08C49.4595 99.2667 51.5113 92.7931 55.096 87.534C58.6806 82.2749 63.4445 77.5347 67.9371 73.042C72.4297 68.5494 78.4317 65.967 83.7734 62.4295C89.016 58.9714 94.599 56.0594 100.435 53.739C106.272 51.4514 111.991 48.5978 118.323 47.4304C124.467 46.2513 130.834 47.4304 137.296 47.4304C143.605 47.2536 149.918 47.6284 156.163 48.5507C162.518 49.6591 168.143 52.2297 174.039 54.4465C179.935 56.6634 186.184 58.1137 191.538 61.5215C196.891 64.9293 202.469 68.1838 206.985 72.6883C211.501 77.1927 215.015 82.6287 218.623 88.0175C222.231 93.4063 223.894 99.479 226.406 105.469C228.917 111.459 234.778 116.329 236.087 122.685C237.396 129.041 236.405 135.845 236.405 142.365Z" fill="#202020"/>
</g>
<path d="M156.006 151.563C118.209 150.068 96.3644 172.893 95.3469 173.951C94.8371 174.499 94.564 175.225 94.5869 175.974C94.6098 176.722 94.927 177.43 95.4694 177.946C95.7372 178.201 96.0529 178.4 96.3982 178.532C96.7434 178.663 97.1114 178.726 97.4808 178.714C97.8502 178.703 98.2137 178.618 98.5502 178.466C98.8867 178.313 99.1896 178.095 99.4414 177.824C99.6931 177.569 124.59 151.548 166.251 158.257C166.616 158.317 166.99 158.304 167.35 158.218C167.711 158.132 168.05 157.974 168.349 157.755C168.648 157.536 168.9 157.26 169.09 156.942C169.281 156.625 169.406 156.272 169.458 155.905C169.57 155.162 169.385 154.405 168.942 153.798C168.5 153.191 167.835 152.783 167.094 152.663C163.422 152.082 159.72 151.715 156.006 151.563Z" fill="#202020"/>
<path d="M166.82 90.9254C167.297 90.6592 167.7 90.278 167.992 89.8164C168.22 89.456 168.374 89.0543 168.446 88.6343C168.518 88.2143 168.507 87.7842 168.412 87.3686C168.318 86.953 168.143 86.5601 167.897 86.2123C167.651 85.8644 167.338 85.5686 166.978 85.3415C162.723 82.5037 157.837 80.7519 152.749 80.2394C147.66 79.7269 142.524 80.4694 137.788 82.4017C137.401 82.5818 137.054 82.8379 136.768 83.1547C136.482 83.4716 136.262 83.8429 136.122 84.2463C135.983 84.6498 135.925 85.0773 135.954 85.5033C135.983 85.9293 136.097 86.3452 136.29 86.7262C136.668 87.4994 137.334 88.0932 138.146 88.3792C138.958 88.6652 139.849 88.6205 140.628 88.2549C141.194 87.9888 151.733 83.3061 163.519 90.7939C164.008 91.1062 164.572 91.2828 165.152 91.3059C165.732 91.329 166.307 91.1977 166.82 90.9254Z" fill="#202020"/>
<path d="M64.5166 87.5808C64.9435 87.8869 65.439 88.0834 65.9596 88.1532C66.4803 88.223 67.0101 88.1638 67.5025 87.9809C81.2897 82.8351 91.1963 89.6836 91.2946 89.7548C91.6413 90 92.0333 90.174 92.4478 90.2666C92.8622 90.3591 93.2909 90.3685 93.709 90.2941C94.1271 90.2196 94.5263 90.0629 94.8834 89.833C95.2404 89.6031 95.5482 89.3046 95.789 88.9547C96.2688 88.2471 96.4531 87.3801 96.3027 86.5385C96.1524 85.6969 95.6791 84.9473 94.984 84.4497C94.4715 84.0775 82.1814 75.5839 65.2515 81.887C64.6976 82.094 64.2104 82.4475 63.8417 82.9097C63.4729 83.372 63.2366 83.9256 63.1579 84.5116C63.0792 85.0977 63.161 85.6941 63.3947 86.2372C63.6283 86.7804 64.005 87.2499 64.4846 87.5958L64.5166 87.5808Z" fill="#202020"/>
<path d="M136.719 132.259L164.652 107.629" stroke="#202020" stroke-width="7.54438" stroke-linecap="round"/>
<path d="M161.743 135.016L139.692 105.006" stroke="#202020" stroke-width="7.54438" stroke-linecap="round"/>
<path d="M75.5986 138.371L92.0209 104.946" stroke="#202020" stroke-width="7.54438" stroke-linecap="round"/>
<path d="M99.7832 131.372L67.9496 112.045" stroke="#202020" stroke-width="7.54438" stroke-linecap="round"/>
<path d="M147.331 178.114C137.426 177.643 138.684 164.161 139.667 156.889L156.765 156.3C159.595 177.525 152.834 178.901 147.331 178.114Z" fill="#202020" stroke="#202020" stroke-width="1.2574"/>
</svg>
