<svg width="296" height="297" viewBox="0 0 296 297" fill="none" xmlns="http://www.w3.org/2000/svg">
<path opacity="0.2" d="M264.634 120.433C271.497 154.228 262.571 188.377 244.919 215.014C226.553 242.811 197.919 262.197 165.289 268.926C131.494 275.788 99.0554 265.777 72.4062 248.125C45.757 230.473 23.0698 204.684 16.207 170.889C9.34422 137.094 17.8696 102.969 35.4864 76.3082C53.1032 49.6472 81.6981 30.7687 115.493 23.9059C149.288 17.0432 183.496 22.491 210.145 40.1431C236.794 57.7953 257.772 86.6378 264.634 120.433Z" fill="#80FFEA"/>
<path d="M252.631 145.738C252.631 176.231 238.882 204.236 218.906 224.223C198.104 245.075 169.886 256.832 140.433 256.922C109.939 256.922 83.5967 242.536 63.6097 222.561C43.6228 202.586 28.5059 176.231 28.5059 145.738C28.5059 115.244 41.9012 87.1685 61.8881 67.1933C81.8751 47.2182 109.939 35.8628 140.433 35.8628C170.926 35.8628 199.603 46.605 219.59 66.592C240.558 87.6191 252.424 116.043 252.631 145.738Z" fill="#80FFEA"/>
<path d="M235.509 39.7894C230.427 51.4631 217.221 65.5071 209.202 71.627C209.338 72.7609 209.835 73.8209 210.621 74.6494C211.407 75.4779 212.44 76.0308 213.565 76.2257C213.565 76.2257 233.847 55.1068 238.634 42.8434C236.924 41.3223 235.509 39.7894 235.509 39.7894Z" fill="#80FFEA"/>
<path d="M247.301 38.905C247.255 41.1858 246.324 43.3594 244.704 44.9659C243.084 46.5724 240.903 47.4858 238.622 47.5129C237.512 47.4808 236.419 47.2287 235.407 46.7712C234.395 46.3138 233.484 45.6601 232.726 44.848C231.074 43.3206 230.094 41.2005 230.002 38.9522C230.029 36.6666 230.957 34.4839 232.585 32.8794C234.24 31.3326 236.421 30.4722 238.687 30.4722C240.953 30.4722 243.134 31.3326 244.789 32.8794C246.371 34.4894 247.271 36.6479 247.301 38.905Z" fill="#80FFEA"/>
<path opacity="0.2" d="M247.301 38.905C247.255 41.1858 246.324 43.3594 244.704 44.9659C243.084 46.5724 240.903 47.4858 238.622 47.5129C237.512 47.4808 236.419 47.2287 235.407 46.7712C234.395 46.3138 233.484 45.6601 232.726 44.848C231.074 43.3206 230.094 41.2005 230.002 38.9522C230.029 36.6666 230.957 34.4839 232.585 32.8794C234.24 31.3326 236.421 30.4722 238.687 30.4722C240.953 30.4722 243.134 31.3326 244.789 32.8794C246.371 34.4894 247.271 36.6479 247.301 38.905Z" fill="#202020"/>
<path d="M164.948 14.0717C163.875 31.0989 153.628 54.812 146.317 66.2028C149.288 71.1788 153.911 70.0115 153.911 70.0115C153.911 70.0115 169.853 34.1529 170.289 16.5125C167.424 15.3569 164.948 14.0717 164.948 14.0717Z" fill="#80FFEA"/>
<path d="M179.416 7.58625C180.411 10.488 180.224 13.6645 178.897 16.43C177.589 19.1761 175.25 21.2949 172.388 22.3259C169.5 23.1792 166.399 22.9493 163.668 21.6793C160.937 20.4093 158.763 18.1864 157.554 15.4277C156.545 12.534 156.724 9.35852 158.05 6.59575C158.703 5.24126 159.617 4.02928 160.74 3.02956C161.863 2.02985 163.173 1.26215 164.594 0.770651C167.443 -0.325943 170.61 -0.249636 173.402 0.982893C176.201 2.30301 178.363 4.67704 179.416 7.58625Z" fill="#80FFEA"/>
<path opacity="0.2" d="M179.416 7.58625C180.411 10.488 180.224 13.6645 178.897 16.43C177.589 19.1761 175.25 21.2949 172.388 22.3259C169.5 23.1792 166.399 22.9493 163.668 21.6793C160.937 20.4093 158.763 18.1864 157.554 15.4277C156.545 12.534 156.724 9.35852 158.05 6.59575C158.703 5.24126 159.617 4.02928 160.74 3.02956C161.863 2.02985 163.173 1.26215 164.594 0.770651C167.443 -0.325943 170.61 -0.249636 173.402 0.982893C176.201 2.30301 178.363 4.67704 179.416 7.58625Z" fill="#202020"/>
<path d="M202.268 31.5588C195.712 40.1432 190.76 55.7436 189.521 64.2218C188.625 64.588 187.634 64.6562 186.695 64.4162C185.757 64.1763 184.921 63.641 184.31 62.8893C184.31 62.8893 191.585 39.1291 198.707 30.5093C200.57 31.1461 202.268 31.5588 202.268 31.5588Z" fill="#80FFEA"/>
<path d="M198.047 22.4557C196.373 23.4294 195.145 25.0174 194.623 26.8823C194.101 28.7472 194.327 30.7421 195.252 32.4432C196.278 34.0508 197.855 35.2288 199.687 35.7564C201.519 36.284 203.481 36.1247 205.205 35.3086C206.891 34.3466 208.128 32.7572 208.648 30.8867C209.11 29.0218 208.85 27.0512 207.921 25.3696C206.992 23.6881 205.461 22.4198 203.636 21.8189C201.762 21.2877 199.754 21.5165 198.047 22.4557Z" fill="#80FFEA"/>
<path opacity="0.2" d="M198.047 22.4557C196.373 23.4294 195.145 25.0174 194.623 26.8823C194.101 28.7472 194.327 30.7421 195.252 32.4432C196.278 34.0508 197.855 35.2288 199.687 35.7564C201.519 36.284 203.481 36.1247 205.205 35.3086C206.891 34.3466 208.128 32.7572 208.648 30.8867C209.11 29.0218 208.85 27.0512 207.921 25.3696C206.992 23.6881 205.461 22.4198 203.636 21.8189C201.762 21.2877 199.754 21.5165 198.047 22.4557Z" fill="#202020"/>
<path d="M133.287 18.3167C134.301 26.7714 140.055 38.3626 144.017 43.7868C143.715 44.4889 143.193 45.0741 142.529 45.4547C141.866 45.8352 141.097 45.9906 140.338 45.8975C140.338 45.8975 131.4 28.4576 130.705 19.6845C132.096 19.0242 133.287 18.3167 133.287 18.3167Z" fill="#80FFEA"/>
<path d="M125.905 15.4867C125.487 16.9571 125.665 18.533 126.401 19.8732C126.758 20.5417 127.244 21.1328 127.831 21.6124C128.418 22.0921 129.094 22.4508 129.82 22.6678C130.543 22.8633 131.298 22.9139 132.04 22.8168C132.783 22.7197 133.499 22.4767 134.148 22.1018C134.821 21.7745 135.423 21.316 135.917 20.753C136.411 20.1901 136.788 19.5342 137.025 18.8238C137.452 17.3515 137.278 15.7697 136.541 14.4255C135.776 13.1215 134.547 12.1543 133.1 11.7171C131.653 11.2798 130.094 11.4049 128.735 12.0671C127.378 12.7888 126.36 14.018 125.905 15.4867Z" fill="#80FFEA"/>
<path opacity="0.2" d="M125.905 15.4867C125.487 16.9571 125.665 18.533 126.401 19.8732C126.758 20.5417 127.244 21.1328 127.831 21.6124C128.418 22.0921 129.094 22.4508 129.82 22.6678C130.543 22.8633 131.298 22.9139 132.04 22.8168C132.783 22.7197 133.499 22.4767 134.148 22.1018C134.821 21.7745 135.423 21.316 135.917 20.753C136.411 20.1901 136.788 19.5342 137.025 18.8238C137.452 17.3515 137.278 15.7697 136.541 14.4255C135.776 13.1215 134.547 12.1543 133.1 11.7171C131.653 11.2798 130.094 11.4049 128.735 12.0671C127.378 12.7888 126.36 14.018 125.905 15.4867Z" fill="#202020"/>
<path d="M102.428 16.3711C107.628 26.7595 109.715 44.2348 109.303 53.4442C110.177 54.0131 111.211 54.2848 112.252 54.219C113.293 54.1531 114.285 53.7532 115.081 53.0786C115.081 53.0786 112.192 26.5119 106.414 15.9819C104.338 16.2767 102.428 16.3711 102.428 16.3711Z" fill="#80FFEA"/>
<path d="M108.725 7.59811C110.305 8.96689 111.284 10.9026 111.449 12.9869C111.542 14.0131 111.432 15.0477 111.125 16.0312C110.817 17.0147 110.318 17.9277 109.656 18.7177C108.25 20.2084 106.349 21.135 104.308 21.3238C102.267 21.5127 100.228 20.9508 98.5721 19.7436C96.9856 18.3817 95.9987 16.4502 95.8247 14.3666C95.7056 12.3101 96.3688 10.2847 97.6811 8.69682C98.9933 7.10897 100.858 6.07621 102.9 5.80579C105.002 5.61066 107.096 6.25497 108.725 7.59811Z" fill="#80FFEA"/>
<path opacity="0.2" d="M108.725 7.59811C110.305 8.96689 111.284 10.9026 111.449 12.9869C111.542 14.0131 111.432 15.0477 111.125 16.0312C110.817 17.0147 110.318 17.9277 109.656 18.7177C108.25 20.2084 106.349 21.135 104.308 21.3238C102.267 21.5127 100.228 20.9508 98.5721 19.7436C96.9856 18.3817 95.9987 16.4502 95.8247 14.3666C95.7056 12.3101 96.3688 10.2847 97.6811 8.69682C98.9933 7.10897 100.858 6.07621 102.9 5.80579C105.002 5.61066 107.096 6.25497 108.725 7.59811Z" fill="#202020"/>
<path d="M77.2058 34.8133C79.3637 44.4353 87.3703 56.9817 92.594 62.8775C92.3272 63.7209 91.7951 64.4555 91.0769 64.9719C90.3587 65.4882 89.4928 65.7587 88.6084 65.7429C88.6084 65.7429 76.2389 46.7229 74.3994 36.6882C75.9088 35.7566 77.2058 34.8133 77.2058 34.8133Z" fill="#80FFEA"/>
<path d="M68.35 32.4313C68.0452 34.1788 68.4436 35.976 69.4584 37.431C69.9484 38.1558 70.5767 38.7768 71.3072 39.2584C72.0376 39.7399 72.8559 40.0726 73.7152 40.2374C75.4434 40.4755 77.1987 40.0667 78.6438 39.0894C80.089 38.1122 81.1222 36.6355 81.5449 34.943C81.8585 33.2023 81.4683 31.4083 80.46 29.9551C79.9643 29.2399 79.3319 28.6299 78.5993 28.1604C77.8667 27.6909 77.0483 27.3711 76.1915 27.2194C74.4688 26.857 72.6727 27.1874 71.1918 28.1391C69.7189 29.1425 68.6986 30.6836 68.35 32.4313Z" fill="#80FFEA"/>
<path opacity="0.2" d="M68.35 32.4313C68.0452 34.1788 68.4436 35.976 69.4584 37.431C69.9484 38.1558 70.5767 38.7768 71.3072 39.2584C72.0376 39.7399 72.8559 40.0726 73.7152 40.2374C75.4434 40.4755 77.1987 40.0667 78.6438 39.0894C80.089 38.1122 81.1222 36.6355 81.5449 34.943C81.8585 33.2023 81.4683 31.4083 80.46 29.9551C79.9643 29.2399 79.3319 28.6299 78.5993 28.1604C77.8667 27.6909 77.0483 27.3711 76.1915 27.2194C74.4688 26.857 72.6727 27.1874 71.1918 28.1391C69.7189 29.1425 68.6986 30.6836 68.35 32.4313Z" fill="#202020"/>
<path d="M49.9082 42.9378C60.9099 49.3407 73.3265 64.0921 78.4795 72.7708C79.6221 72.7679 80.7334 72.397 81.6487 71.7132C82.5641 71.0293 83.2349 70.0688 83.5617 68.9739C83.5617 68.9739 64.9662 46.3692 53.316 40.1904C51.5944 41.7115 49.9082 42.9378 49.9082 42.9378Z" fill="#80FFEA"/>
<path d="M50.4034 31.1225C52.664 31.4317 54.7152 32.6093 56.1219 34.4057C57.5286 36.202 58.1801 38.4758 57.9383 40.7445C57.7828 41.8516 57.4075 42.9164 56.8344 43.8763C56.2613 44.8361 55.502 45.6717 54.6012 46.3338C53.7503 47.0642 52.7628 47.6185 51.6962 47.9646C50.6295 48.3107 49.5047 48.4418 48.387 48.3502C46.1191 48.0563 44.0592 46.878 42.6563 45.0721C41.3037 43.2551 40.6925 40.9919 40.9465 38.741C41.2004 36.4902 42.3006 34.4201 44.0241 32.9502C45.8286 31.5281 48.1196 30.8717 50.4034 31.1225Z" fill="#80FFEA"/>
<path opacity="0.2" d="M50.4034 31.1225C52.664 31.4317 54.7152 32.6093 56.1219 34.4057C57.5286 36.202 58.1801 38.4758 57.9383 40.7445C57.7828 41.8516 57.4075 42.9164 56.8344 43.8763C56.2613 44.8361 55.502 45.6717 54.6012 46.3338C53.7503 47.0642 52.7628 47.6185 51.6962 47.9646C50.6295 48.3107 49.5047 48.4418 48.387 48.3502C46.1191 48.0563 44.0592 46.878 42.6563 45.0721C41.3037 43.2551 40.6925 40.9919 40.9465 38.741C41.2004 36.4902 42.3006 34.4201 44.0241 32.9502C45.8286 31.5281 48.1196 30.8717 50.4034 31.1225Z" fill="#202020"/>
<path d="M16.1602 110.044C32.9515 113.087 55.3086 126.022 65.7678 134.606C71.0505 132.248 70.4845 127.531 70.4845 127.531C70.4845 127.531 36.7249 107.485 19.2496 105.045C17.7285 107.686 16.1602 110.044 16.1602 110.044Z" fill="#80FFEA"/>
<path d="M11.4082 94.9038C14.3967 94.2728 17.5134 94.8261 20.1022 96.4471C22.6909 98.068 24.5496 100.63 25.2871 103.594C25.7954 106.562 25.2057 109.614 23.628 112.179C22.0504 114.744 19.5928 116.647 16.7145 117.532C13.7206 118.197 10.5852 117.655 7.98863 116.023C5.46038 114.344 3.66271 111.769 2.95809 108.817C2.25347 105.865 2.6943 102.756 4.19171 100.116C5.82387 97.5023 8.41416 95.6315 11.4082 94.9038Z" fill="#80FFEA"/>
<path opacity="0.2" d="M11.4082 94.9038C14.3967 94.2728 17.5134 94.8261 20.1022 96.4471C22.6909 98.068 24.5496 100.63 25.2871 103.594C25.7954 106.562 25.2057 109.614 23.628 112.179C22.0504 114.744 19.5928 116.647 16.7145 117.532C13.7206 118.197 10.5852 117.655 7.98863 116.023C5.46038 114.344 3.66271 111.769 2.95809 108.817C2.25347 105.865 2.6943 102.756 4.19171 100.116C5.82387 97.5023 8.41416 95.6315 11.4082 94.9038Z" fill="#202020"/>
<path d="M37.8454 74.9995C45.6161 82.5108 60.5326 89.232 68.8104 91.4489C69.0718 92.3828 69.0247 93.3761 68.6763 94.2811C68.3279 95.1861 67.6967 95.9546 66.8766 96.4721C66.8766 96.4721 44.1186 86.4846 36.395 78.419C37.2558 76.6621 37.8454 74.9995 37.8454 74.9995Z" fill="#80FFEA"/>
<path d="M28.3291 78.1359C29.1059 79.9087 30.5419 81.3098 32.3333 82.0426C34.1247 82.7755 36.131 82.7826 37.9276 82.0626C39.6462 81.234 41.0026 79.8055 41.741 78.0462C42.4795 76.2869 42.5491 74.3183 41.9368 72.5113C41.1743 70.7264 39.7376 69.3151 37.9394 68.5846C36.1501 67.9175 34.175 67.95 32.4087 68.6758C30.6424 69.4015 29.2149 70.7671 28.4117 72.4995C27.6535 74.2963 27.6239 76.3176 28.3291 78.1359Z" fill="#80FFEA"/>
<path opacity="0.2" d="M28.3291 78.1359C29.1059 79.9087 30.5419 81.3098 32.3333 82.0426C34.1247 82.7755 36.131 82.7826 37.9276 82.0626C39.6462 81.234 41.0026 79.8055 41.741 78.0462C42.4795 76.2869 42.5491 74.3183 41.9368 72.5113C41.1743 70.7264 39.7376 69.3151 37.9394 68.5846C36.1501 67.9175 34.175 67.95 32.4087 68.6758C30.6424 69.4015 29.2149 70.7671 28.4117 72.4995C27.6535 74.2963 27.6239 76.3176 28.3291 78.1359Z" fill="#202020"/>
<path d="M16.7026 141.964C25.2162 141.964 37.3499 137.566 43.2457 134.264C43.9076 134.648 44.4273 135.235 44.7271 135.939C45.0268 136.643 45.0904 137.425 44.9084 138.168C44.9084 138.168 26.5487 145.018 17.7875 144.7C17.2686 143.238 16.7026 141.964 16.7026 141.964Z" fill="#80FFEA"/>
<path d="M13.0828 148.957C14.4962 149.531 16.0771 149.534 17.4932 148.967C18.9093 148.4 20.0503 147.306 20.6766 145.915C21.1707 144.498 21.1348 142.951 20.5754 141.559C20.016 140.167 18.9712 139.025 17.6344 138.344C16.2182 137.761 14.6287 137.761 13.2125 138.344C11.8243 138.947 10.7159 140.054 10.1099 141.44C9.504 142.827 9.44549 144.392 9.94618 145.82C10.5371 147.239 11.6645 148.366 13.0828 148.957Z" fill="#80FFEA"/>
<path opacity="0.2" d="M13.0828 148.957C14.4962 149.531 16.0771 149.534 17.4932 148.967C18.9093 148.4 20.0503 147.306 20.6766 145.915C21.1707 144.498 21.1348 142.951 20.5754 141.559C20.016 140.167 18.9712 139.025 17.6344 138.344C16.2182 137.761 14.6287 137.761 13.2125 138.344C11.8243 138.947 10.7159 140.054 10.1099 141.44C9.504 142.827 9.44549 144.392 9.94618 145.82C10.5371 147.239 11.6645 148.366 13.0828 148.957Z" fill="#202020"/>
<path d="M11.1724 172.387C22.1033 168.437 39.6965 168.39 48.7997 169.875C49.468 169.072 49.859 168.075 49.9142 167.031C49.9695 165.988 49.6861 164.955 49.1063 164.086C49.1063 164.086 22.3863 163.873 11.2549 168.39C11.3021 170.489 11.1724 172.387 11.1724 172.387Z" fill="#80FFEA"/>
<path d="M3.2008 165.112C4.74141 163.712 6.76634 162.968 8.84645 163.036C10.9266 163.104 12.8984 163.98 14.3439 165.477C15.0291 166.235 15.5562 167.121 15.8943 168.085C16.2324 169.049 16.3748 170.07 16.3132 171.09C16.3232 172.114 16.1304 173.13 15.7458 174.079C15.3613 175.028 14.7927 175.892 14.0727 176.62C12.5365 178.031 10.5092 178.784 8.42452 178.719C6.36034 178.597 4.41925 177.697 2.99253 176.2C1.56581 174.703 0.759568 172.721 0.736328 170.654C0.801723 168.555 1.68639 166.566 3.2008 165.112Z" fill="#80FFEA"/>
<path opacity="0.2" d="M3.2008 165.112C4.74141 163.712 6.76634 162.968 8.84645 163.036C10.9266 163.104 12.8984 163.98 14.3439 165.477C15.0291 166.235 15.5562 167.121 15.8943 168.085C16.2324 169.049 16.3748 170.07 16.3132 171.09C16.3232 172.114 16.1304 173.13 15.7458 174.079C15.3613 175.028 14.7927 175.892 14.0727 176.62C12.5365 178.031 10.5092 178.784 8.42452 178.719C6.36034 178.597 4.41925 177.697 2.99253 176.2C1.56581 174.703 0.759568 172.721 0.736328 170.654C0.801723 168.555 1.68639 166.566 3.2008 165.112Z" fill="#202020"/>
<path d="M26.5605 199.59C36.3712 198.553 49.8138 192.067 56.2167 187.563C57.0177 187.931 57.6792 188.547 58.1038 189.32C58.5284 190.093 58.6936 190.981 58.575 191.855C58.575 191.855 38.2461 201.937 28.0699 202.609C27.3624 200.994 26.5605 199.59 26.5605 199.59Z" fill="#80FFEA"/>
<path d="M23.1643 208.104C24.8648 208.604 26.6934 208.417 28.2583 207.585C29.0341 207.185 29.7231 206.635 30.2857 205.967C30.8482 205.299 31.2733 204.527 31.5364 203.694C31.7804 202.863 31.855 201.991 31.7557 201.13C31.6565 200.269 31.3854 199.437 30.9586 198.683C30.5918 197.899 30.0738 197.196 29.4343 196.613C28.7949 196.03 28.0466 195.579 27.2324 195.287C25.5389 194.779 23.7139 194.957 22.1502 195.782C21.3806 196.183 20.6978 196.732 20.1413 197.398C19.5848 198.063 19.1655 198.833 18.9075 199.661C18.3414 201.332 18.4601 203.16 19.2376 204.743C20.0525 206.337 21.4637 207.545 23.1643 208.104Z" fill="#80FFEA"/>
<path opacity="0.2" d="M23.1643 208.104C24.8648 208.604 26.6934 208.417 28.2583 207.585C29.0341 207.185 29.7231 206.635 30.2857 205.967C30.8482 205.299 31.2733 204.527 31.5364 203.694C31.7804 202.863 31.855 201.991 31.7557 201.13C31.6565 200.269 31.3854 199.437 30.9586 198.683C30.5918 197.899 30.0738 197.196 29.4343 196.613C28.7949 196.03 28.0466 195.579 27.2324 195.287C25.5389 194.779 23.7139 194.957 22.1502 195.782C21.3806 196.183 20.6978 196.732 20.1413 197.398C19.5848 198.063 19.1655 198.833 18.9075 199.661C18.3414 201.332 18.4601 203.16 19.2376 204.743C20.0525 206.337 21.4637 207.545 23.1643 208.104Z" fill="#202020"/>
<path d="M56.0277 249.693C60.7443 237.902 73.6209 223.492 81.4741 217.148C81.3086 216.019 80.7833 214.973 79.976 214.166C79.1688 213.358 78.1228 212.833 76.9933 212.667C76.9933 212.667 57.2658 234.317 52.8203 246.71C54.5655 248.196 56.0277 249.693 56.0277 249.693Z" fill="#80FFEA"/>
<path d="M44.248 250.884C44.225 248.593 45.1063 246.386 46.7007 244.741C48.2749 243.105 50.433 242.16 52.7026 242.111C53.821 242.106 54.9291 242.325 55.9618 242.754C56.9945 243.184 57.931 243.815 58.7164 244.611C59.5606 245.356 60.2493 246.26 60.7431 247.272C61.2368 248.284 61.5258 249.383 61.5936 250.507C61.6254 252.795 60.7524 255.003 59.1645 256.65C58.3834 257.455 57.4511 258.097 56.4211 258.54C55.3911 258.984 54.2837 259.219 53.1625 259.233C50.8873 259.34 48.6621 258.543 46.9719 257.016C46.1367 256.223 45.4662 255.274 44.9988 254.222C44.5314 253.169 44.2763 252.035 44.248 250.884Z" fill="#80FFEA"/>
<path opacity="0.2" d="M44.248 250.884C44.225 248.593 45.1063 246.386 46.7007 244.741C48.2749 243.105 50.433 242.16 52.7026 242.111C53.821 242.106 54.9291 242.325 55.9618 242.754C56.9945 243.184 57.931 243.815 58.7164 244.611C59.5606 245.356 60.2493 246.26 60.7431 247.272C61.2368 248.284 61.5258 249.383 61.5936 250.507C61.6254 252.795 60.7524 255.003 59.1645 256.65C58.3834 257.455 57.4511 258.097 56.4211 258.54C55.3911 258.984 54.2837 259.219 53.1625 259.233C50.8873 259.34 48.6621 258.543 46.9719 257.016C46.1367 256.223 45.4662 255.274 44.9988 254.222C44.5314 253.169 44.2763 252.035 44.248 250.884Z" fill="#202020"/>
<path d="M143.416 282.038C140.598 265.211 145.197 239.788 149.736 227.042C145.715 222.867 141.482 225.061 141.482 225.061C141.482 225.061 134.101 263.596 137.685 280.871C140.704 281.354 143.416 282.038 143.416 282.038Z" fill="#80FFEA"/>
<path d="M130.799 291.636C129.193 289.038 128.659 285.918 129.308 282.933C129.957 279.949 131.738 277.332 134.277 275.635C136.897 274.148 139.969 273.668 142.917 274.284C145.865 274.901 148.487 276.572 150.291 278.984C151.932 281.572 152.484 284.705 151.824 287.698C151.101 290.644 149.287 293.207 146.748 294.868C144.209 296.529 141.135 297.165 138.145 296.648C135.132 296.01 132.492 294.209 130.799 291.636Z" fill="#80FFEA"/>
<path opacity="0.2" d="M130.799 291.636C129.193 289.038 128.659 285.918 129.308 282.933C129.957 279.949 131.738 277.332 134.277 275.635C136.897 274.148 139.969 273.668 142.917 274.284C145.865 274.901 148.487 276.572 150.291 278.984C151.932 281.572 152.484 284.705 151.824 287.698C151.101 290.644 149.287 293.207 146.748 294.868C144.209 296.529 141.135 297.165 138.145 296.648C135.132 296.01 132.492 294.209 130.799 291.636Z" fill="#202020"/>
<path d="M114.856 271.013C119.302 261.167 120.575 244.847 119.856 236.31C120.645 235.747 121.595 235.454 122.564 235.475C123.533 235.497 124.47 235.831 125.233 236.428C125.233 236.428 123.547 261.19 118.571 271.225C116.625 271.025 114.856 271.013 114.856 271.013Z" fill="#80FFEA"/>
<path d="M121.035 278.925C122.463 277.6 123.311 275.765 123.393 273.819C123.484 271.886 122.806 269.995 121.507 268.56C120.852 267.874 120.068 267.325 119.2 266.944C118.332 266.564 117.396 266.359 116.448 266.343C115.5 266.263 114.545 266.371 113.639 266.661C112.733 266.95 111.892 267.415 111.165 268.03C109.739 269.351 108.892 271.181 108.807 273.124C108.776 275.044 109.474 276.906 110.761 278.332C112.047 279.759 113.827 280.645 115.741 280.812C117.685 280.903 119.587 280.225 121.035 278.925Z" fill="#80FFEA"/>
<path opacity="0.2" d="M121.035 278.925C122.463 277.6 123.311 275.765 123.393 273.819C123.484 271.886 122.806 269.995 121.507 268.56C120.852 267.874 120.068 267.325 119.2 266.944C118.332 266.564 117.396 266.359 116.448 266.343C115.5 266.263 114.545 266.371 113.639 266.661C112.733 266.95 111.892 267.415 111.165 268.03C109.739 269.351 108.892 271.181 108.807 273.124C108.776 275.044 109.474 276.906 110.761 278.332C112.047 279.759 113.827 280.645 115.741 280.812C117.685 280.903 119.587 280.225 121.035 278.925Z" fill="#202020"/>
<path d="M30.0977 217.962C37.3496 213.493 45.4269 203.411 48.705 197.515C49.4684 197.496 50.2175 197.725 50.8403 198.167C51.463 198.609 51.926 199.241 52.1599 199.968C52.1599 199.968 40.097 215.415 32.4324 219.707C31.2532 218.752 30.0977 217.962 30.0977 217.962Z" fill="#80FFEA"/>
<path d="M30.6401 225.851C32.1392 225.592 33.4805 224.765 34.3837 223.541C35.2869 222.317 35.682 220.791 35.4865 219.283C35.1815 217.811 34.3518 216.501 33.152 215.596C31.9522 214.692 30.4643 214.254 28.9657 214.365C27.4557 214.601 26.0998 215.423 25.1924 216.653C24.7478 217.259 24.4282 217.948 24.2521 218.678C24.076 219.409 24.0469 220.168 24.1665 220.91C24.352 222.419 25.1226 223.795 26.3126 224.742C27.5539 225.665 29.1081 226.063 30.6401 225.851Z" fill="#80FFEA"/>
<path opacity="0.2" d="M30.6401 225.851C32.1392 225.592 33.4805 224.765 34.3837 223.541C35.2869 222.317 35.682 220.791 35.4865 219.283C35.1815 217.811 34.3518 216.501 33.152 215.596C31.9522 214.692 30.4643 214.254 28.9657 214.365C27.4557 214.601 26.0998 215.423 25.1924 216.653C24.7478 217.259 24.4282 217.948 24.2521 218.678C24.076 219.409 24.0469 220.168 24.1665 220.91C24.352 222.419 25.1226 223.795 26.3126 224.742C27.5539 225.665 29.1081 226.063 30.6401 225.851Z" fill="#202020"/>
<path d="M220.428 269.232C212.999 260.294 207.009 243.75 205.311 234.694C204.331 234.339 203.263 234.308 202.264 234.608C201.266 234.907 200.391 235.521 199.769 236.357C199.769 236.357 208.612 261.579 216.642 270.553C218.588 269.786 220.428 269.232 220.428 269.232Z" fill="#80FFEA"/>
<path d="M216.277 279.232C214.432 278.256 213.044 276.597 212.409 274.609C211.758 272.633 211.915 270.48 212.845 268.619C213.876 266.834 215.525 265.489 217.481 264.837C219.436 264.185 221.562 264.272 223.458 265.082C224.813 265.819 225.926 266.933 226.663 268.288C227.401 269.644 227.731 271.183 227.614 272.722C227.496 274.26 226.937 275.732 226.003 276.96C225.07 278.188 223.801 279.12 222.35 279.644C220.35 280.313 218.168 280.165 216.277 279.232Z" fill="#80FFEA"/>
<path opacity="0.2" d="M216.277 279.232C214.432 278.256 213.044 276.597 212.409 274.609C211.758 272.633 211.915 270.48 212.845 268.619C213.876 266.834 215.525 265.489 217.481 264.837C219.436 264.185 221.562 264.272 223.458 265.082C224.813 265.819 225.926 266.933 226.663 268.288C227.401 269.644 227.731 271.183 227.614 272.722C227.496 274.26 226.937 275.732 226.003 276.96C225.07 278.188 223.801 279.12 222.35 279.644C220.35 280.313 218.168 280.165 216.277 279.232Z" fill="#202020"/>
<path d="M240.804 245.578C236.512 236.699 225.852 226.24 219.449 221.747C219.518 220.866 219.87 220.031 220.453 219.366C221.035 218.701 221.816 218.241 222.68 218.056C222.68 218.056 239.047 233.763 243.127 243.102C241.842 244.34 240.804 245.578 240.804 245.578Z" fill="#80FFEA"/>
<path d="M249.966 245.885C249.866 244.114 249.074 242.454 247.761 241.262C246.46 240.066 244.739 239.434 242.973 239.505C241.242 239.677 239.634 240.476 238.451 241.75C237.267 243.025 236.59 244.688 236.547 246.427C236.636 248.195 237.42 249.857 238.728 251.049C240.053 252.194 241.762 252.795 243.512 252.732C245.262 252.668 246.923 251.945 248.162 250.707C249.374 249.4 250.022 247.667 249.966 245.885Z" fill="#80FFEA"/>
<path opacity="0.2" d="M249.966 245.885C249.866 244.114 249.074 242.454 247.761 241.262C246.46 240.066 244.739 239.434 242.973 239.505C241.242 239.677 239.634 240.476 238.451 241.75C237.267 243.025 236.59 244.688 236.547 246.427C236.636 248.195 237.42 249.857 238.728 251.049C240.053 252.194 241.762 252.795 243.512 252.732C245.262 252.668 246.923 251.945 248.162 250.707C249.374 249.4 250.022 247.667 249.966 245.885Z" fill="#202020"/>
<path d="M268.243 225.178C256.074 221.452 240.639 209.849 233.646 202.621C232.536 202.883 231.539 203.495 230.804 204.368C230.069 205.242 229.635 206.328 229.566 207.467C229.566 207.467 252.82 225.261 265.555 228.633C266.887 226.782 268.243 225.178 268.243 225.178Z" fill="#80FFEA"/>
<path d="M270.448 236.805C268.177 237.019 265.912 236.339 264.133 234.91C262.354 233.482 261.202 231.416 260.921 229.152C260.804 226.907 261.51 224.697 262.905 222.934C264.301 221.172 266.291 219.979 268.503 219.577C270.776 219.343 273.05 220.022 274.823 221.464C276.546 222.93 277.649 224.994 277.912 227.241C278.174 229.488 277.576 231.75 276.238 233.574C274.808 235.371 272.728 236.532 270.448 236.805Z" fill="#80FFEA"/>
<path opacity="0.2" d="M270.448 236.805C268.177 237.019 265.912 236.339 264.133 234.91C262.354 233.482 261.202 231.416 260.921 229.152C260.804 226.907 261.51 224.697 262.905 222.934C264.301 221.172 266.291 219.979 268.503 219.577C270.776 219.343 273.05 220.022 274.823 221.464C276.546 222.93 277.649 224.994 277.912 227.241C278.174 229.488 277.576 231.75 276.238 233.574C274.808 235.371 272.728 236.532 270.448 236.805Z" fill="#202020"/>
<path d="M280.813 158.473C263.774 159.31 239.059 151.787 226.925 145.797C222.314 149.334 223.989 153.78 223.989 153.78C223.989 153.78 261.404 165.571 278.985 164.05C279.811 161.079 280.813 158.473 280.813 158.473Z" fill="#80FFEA"/>
<path d="M288.878 172.116C286.108 173.435 282.929 173.604 280.034 172.588C278.599 172.108 277.273 171.35 276.131 170.356C274.99 169.363 274.056 168.153 273.384 166.798C272.211 164.025 272.092 160.919 273.047 158.064C274.002 155.209 275.967 152.801 278.572 151.292C281.333 149.964 284.506 149.778 287.404 150.773C290.245 151.838 292.578 153.939 293.934 156.653C295.29 159.368 295.569 162.495 294.715 165.406C293.72 168.319 291.625 170.727 288.878 172.116Z" fill="#80FFEA"/>
<path opacity="0.2" d="M288.878 172.116C286.108 173.435 282.929 173.604 280.034 172.588C278.599 172.108 277.273 171.35 276.131 170.356C274.99 169.363 274.056 168.153 273.384 166.798C272.211 164.025 272.092 160.919 273.047 158.064C274.002 155.209 275.967 152.801 278.572 151.292C281.333 149.964 284.506 149.778 287.404 150.773C290.245 151.838 292.578 153.939 293.934 156.653C295.29 159.368 295.569 162.495 294.715 165.406C293.72 168.319 291.625 170.727 288.878 172.116Z" fill="#202020"/>
<path d="M270 197.515C260.732 191.961 244.671 188.789 236.111 188.518C235.642 187.669 235.462 186.69 235.596 185.73C235.73 184.769 236.171 183.877 236.853 183.188C236.853 183.188 261.286 187.74 270.637 193.86C270.212 195.758 270 197.515 270 197.515Z" fill="#80FFEA"/>
<path d="M278.573 192.291C277.412 190.741 275.695 189.702 273.783 189.394C271.871 189.085 269.914 189.533 268.326 190.641C266.854 191.845 265.869 193.542 265.552 195.418C265.236 197.293 265.609 199.219 266.604 200.84C267.475 201.98 268.656 202.843 270.006 203.328C271.355 203.812 272.816 203.897 274.213 203.572C275.609 203.248 276.883 202.527 277.88 201.496C278.877 200.466 279.556 199.169 279.834 197.763C280.141 195.844 279.688 193.882 278.573 192.291Z" fill="#80FFEA"/>
<path opacity="0.2" d="M278.573 192.291C277.412 190.741 275.695 189.702 273.783 189.394C271.871 189.085 269.914 189.533 268.326 190.641C266.854 191.845 265.869 193.542 265.552 195.418C265.236 197.293 265.609 199.219 266.604 200.84C267.475 201.98 268.656 202.843 270.006 203.328C271.355 203.812 272.816 203.897 274.213 203.572C275.609 203.248 276.883 202.527 277.88 201.496C278.877 200.466 279.556 199.169 279.834 197.763C280.141 195.844 279.688 193.882 278.573 192.291Z" fill="#202020"/>
<path d="M275.412 127.484C267.158 129.442 256.31 136.458 251.31 141.009C250.58 140.785 249.942 140.331 249.492 139.715C249.041 139.099 248.802 138.353 248.81 137.59C248.81 137.59 265.13 126.753 273.773 125.067C274.575 126.376 275.412 127.484 275.412 127.484Z" fill="#80FFEA"/>
<path d="M277.405 119.831C275.895 119.596 274.353 119.957 273.104 120.837C271.854 121.717 270.995 123.047 270.708 124.548C270.59 125.287 270.622 126.042 270.8 126.769C270.978 127.496 271.3 128.18 271.745 128.781C272.55 130.047 273.821 130.945 275.283 131.281C276.794 131.539 278.346 131.187 279.599 130.302C280.218 129.871 280.746 129.32 281.151 128.682C281.556 128.045 281.83 127.333 281.957 126.588C282.112 125.846 282.116 125.08 281.969 124.337C281.822 123.593 281.527 122.886 281.101 122.259C280.676 121.632 280.128 121.097 279.491 120.686C278.854 120.275 278.141 119.996 277.394 119.867L277.405 119.831Z" fill="#80FFEA"/>
<path opacity="0.2" d="M277.405 119.831C275.895 119.596 274.353 119.957 273.104 120.837C271.854 121.717 270.995 123.047 270.708 124.548C270.59 125.287 270.622 126.042 270.8 126.769C270.978 127.496 271.3 128.18 271.745 128.781C272.55 130.047 273.821 130.945 275.283 131.281C276.794 131.539 278.346 131.187 279.599 130.302C280.218 129.871 280.746 129.32 281.151 128.682C281.556 128.045 281.83 127.333 281.957 126.588C282.112 125.846 282.116 125.08 281.969 124.337C281.822 123.593 281.527 122.886 281.101 122.259C280.676 121.632 280.128 121.097 279.491 120.686C278.854 120.275 278.141 119.996 277.394 119.867L277.405 119.831Z" fill="#202020"/>
<path d="M273.891 96.6018C264.151 102.934 247.018 106.967 237.82 107.592C237.352 108.524 237.197 109.583 237.377 110.611C237.558 111.639 238.065 112.581 238.823 113.299C238.823 113.299 264.906 107.403 274.728 100.517C274.198 98.4885 273.891 96.6018 273.891 96.6018Z" fill="#80FFEA"/>
<path d="M283.313 101.884C282.13 103.605 280.317 104.791 278.266 105.186C277.254 105.388 276.212 105.387 275.2 105.185C274.189 104.983 273.227 104.582 272.37 104.007C270.733 102.774 269.601 100.987 269.184 98.9797C268.767 96.9727 269.095 94.8828 270.106 93.0997C271.279 91.3697 273.09 90.1742 275.141 89.7744C276.144 89.5762 277.176 89.5784 278.178 89.7808C279.179 89.9832 280.131 90.3817 280.978 90.9536C282.736 92.061 283.983 93.821 284.445 95.8471C284.881 97.9301 284.474 100.101 283.313 101.884Z" fill="#80FFEA"/>
<path opacity="0.2" d="M283.313 101.884C282.13 103.605 280.317 104.791 278.266 105.186C277.254 105.388 276.212 105.387 275.2 105.185C274.189 104.983 273.227 104.582 272.37 104.007C270.733 102.774 269.601 100.987 269.184 98.9797C268.767 96.9727 269.095 94.8828 270.106 93.0997C271.279 91.3697 273.09 90.1742 275.141 89.7744C276.144 89.5762 277.176 89.5784 278.178 89.7808C279.179 89.9832 280.131 90.3817 280.978 90.9536C282.736 92.061 283.983 93.821 284.445 95.8471C284.881 97.9301 284.474 100.101 283.313 101.884Z" fill="#202020"/>
<path d="M252.737 73.608C243.421 76.839 231.795 86.2134 226.583 92.0503C225.716 91.8769 224.928 91.429 224.335 90.7727C223.743 90.1164 223.377 89.2868 223.293 88.4066C223.293 88.4066 240.792 73.9736 250.555 71.0139C251.64 72.4171 252.737 73.608 252.737 73.608Z" fill="#80FFEA"/>
<path d="M254.105 64.5402C252.341 64.4476 250.61 65.042 249.276 66.1985C247.941 67.355 247.106 68.9837 246.947 70.7426C246.921 72.4836 247.53 74.1745 248.661 75.4986C249.792 76.8226 251.367 77.689 253.091 77.9355C254.859 78.052 256.602 77.4626 257.937 76.2965C258.59 75.7224 259.124 75.0246 259.506 74.2434C259.889 73.4622 260.113 72.6131 260.166 71.7449C260.334 69.9909 259.804 68.2411 258.692 66.8749C257.527 65.5271 255.88 64.689 254.105 64.5402Z" fill="#80FFEA"/>
<path opacity="0.2" d="M254.105 64.5402C252.341 64.4476 250.61 65.042 249.276 66.1985C247.941 67.355 247.106 68.9837 246.947 70.7426C246.921 72.4836 247.53 74.1745 248.661 75.4986C249.792 76.8226 251.367 77.689 253.091 77.9355C254.859 78.052 256.602 77.4626 257.937 76.2965C258.59 75.7224 259.124 75.0246 259.506 74.2434C259.889 73.4622 260.113 72.6131 260.166 71.7449C260.334 69.9909 259.804 68.2411 258.692 66.8749C257.527 65.5271 255.88 64.689 254.105 64.5402Z" fill="#202020"/>
<g opacity="0.1">
<path d="M236.405 142.365C236.405 148.874 233.033 154.829 231.688 161.008C230.344 167.187 229.578 173.543 226.972 179.38C224.358 185.169 221.2 190.697 217.538 195.888C214.037 201.202 210.054 206.184 205.641 210.769C201.089 215.18 196.112 219.13 190.783 222.561C185.596 226.158 180.066 229.235 174.275 231.746C168.438 234.187 162.624 236.782 156.304 238.067C149.984 239.352 143.781 239.034 137.296 239.034C130.81 239.034 125.033 237.076 118.995 235.697C112.757 234.282 106.284 234.376 100.6 231.723C94.9165 229.07 90.6243 224.105 85.495 220.426C80.3656 216.747 73.9745 214.637 69.5172 210.179C65.0599 205.722 60.0131 201.454 56.2515 196.312C52.49 191.171 51.1339 184.521 48.3747 178.802C45.5328 173.163 43.3108 167.232 41.7478 161.114C40.3092 155.053 40.7926 148.886 40.7926 142.377C40.7926 135.868 37.2551 128.958 38.564 122.768C39.8729 116.577 44.4598 110.893 46.9597 105.08C49.4595 99.2667 51.5113 92.7931 55.096 87.534C58.6806 82.2749 63.4445 77.5347 67.9371 73.042C72.4297 68.5494 78.4317 65.967 83.7734 62.4295C89.016 58.9714 94.599 56.0594 100.435 53.739C106.272 51.4514 111.991 48.5978 118.323 47.4304C124.467 46.2513 130.834 47.4304 137.296 47.4304C143.605 47.2536 149.918 47.6284 156.163 48.5507C162.518 49.6591 168.143 52.2297 174.039 54.4465C179.935 56.6634 186.184 58.1137 191.538 61.5215C196.891 64.9293 202.469 68.1838 206.985 72.6883C211.501 77.1927 215.015 82.6287 218.623 88.0175C222.231 93.4063 223.894 99.479 226.406 105.469C228.917 111.459 234.778 116.329 236.087 122.685C237.396 129.041 236.405 135.845 236.405 142.365Z" fill="#202020"/>
</g>
<path d="M156.007 151.563C118.21 150.068 96.3654 172.893 95.3479 173.951C94.838 174.499 94.5649 175.225 94.5879 175.974C94.6108 176.722 94.9279 177.43 95.4704 177.946C95.7382 178.201 96.0539 178.4 96.3991 178.532C96.7444 178.663 97.1124 178.726 97.4818 178.714C97.8512 178.703 98.2147 178.618 98.5512 178.466C98.8877 178.313 99.1906 178.095 99.4423 177.824C99.694 177.569 124.591 151.548 166.252 158.257C166.617 158.317 166.991 158.304 167.351 158.218C167.712 158.132 168.051 157.974 168.35 157.755C168.649 157.536 168.901 157.26 169.091 156.942C169.282 156.625 169.407 156.272 169.459 155.905C169.571 155.162 169.386 154.405 168.943 153.798C168.501 153.191 167.836 152.783 167.095 152.663C163.423 152.082 159.721 151.715 156.007 151.563Z" fill="#202020"/>
<path d="M166.821 90.9255C167.298 90.6593 167.701 90.278 167.993 89.8165C168.221 89.4561 168.375 89.0544 168.447 88.6344C168.519 88.2144 168.508 87.7843 168.413 87.3687C168.319 86.9531 168.144 86.5602 167.898 86.2123C167.652 85.8645 167.339 85.5686 166.979 85.3416C162.724 82.5038 157.838 80.752 152.75 80.2395C147.661 79.727 142.524 80.4694 137.789 82.4018C137.402 82.5818 137.055 82.8379 136.769 83.1548C136.483 83.4717 136.263 83.8429 136.123 84.2464C135.984 84.6499 135.926 85.0773 135.955 85.5034C135.984 85.9294 136.098 86.3453 136.291 86.7263C136.669 87.4995 137.335 88.0932 138.147 88.3792C138.959 88.6652 139.85 88.6206 140.629 88.255C141.195 87.9889 151.733 83.3062 163.52 90.794C164.009 91.1062 164.573 91.2829 165.153 91.306C165.733 91.3291 166.308 91.1978 166.821 90.9255Z" fill="#202020"/>
<path d="M64.5171 87.5808C64.944 87.8869 65.4395 88.0834 65.9601 88.1532C66.4807 88.223 67.0105 88.1638 67.5029 87.9809C81.2901 82.8351 91.1968 89.6836 91.2951 89.7548C91.6418 90 92.0338 90.174 92.4482 90.2666C92.8627 90.3591 93.2914 90.3685 93.7095 90.2941C94.1276 90.2196 94.5268 90.0629 94.8838 89.833C95.2409 89.6031 95.5487 89.3046 95.7895 88.9547C96.2693 88.2471 96.4536 87.3801 96.3032 86.5385C96.1528 85.6969 95.6796 84.9473 94.9845 84.4497C94.472 84.0775 82.1819 75.5839 65.252 81.887C64.6981 82.094 64.2108 82.4475 63.8421 82.9097C63.4734 83.372 63.2371 83.9256 63.1584 84.5116C63.0797 85.0977 63.1615 85.6941 63.3951 86.2372C63.6288 86.7804 64.0055 87.2499 64.4851 87.5958L64.5171 87.5808Z" fill="#202020"/>
<path d="M136.718 132.259L164.651 107.629" stroke="#202020" stroke-width="7.07502" stroke-linecap="round"/>
<path d="M161.743 135.016L139.691 105.006" stroke="#202020" stroke-width="7.07502" stroke-linecap="round"/>
<path d="M75.5986 138.371L92.0209 104.946" stroke="#202020" stroke-width="7.07502" stroke-linecap="round"/>
<path d="M99.7822 131.372L67.9486 112.045" stroke="#202020" stroke-width="7.07502" stroke-linecap="round"/>
<path d="M147.33 178.114C137.425 177.643 138.683 164.161 139.666 156.889L156.764 156.3C159.594 177.525 152.833 178.901 147.33 178.114Z" fill="#202020" stroke="#202020" stroke-width="1.17917"/>
</svg>
